<svg width="60" height="71" viewBox="0 0 60 71" xmlns="http://www.w3.org/2000/svg" title="Apple"><path d="M58.74 55.14a38.4 38.4 0 01-3.83 6.84c-2.01 2.85-3.66 4.82-4.93 5.92-1.97 1.8-4.08 2.72-6.34 2.77-1.62 0-3.58-.46-5.86-1.39a16.9 16.9 0 00-6.3-1.38c-2.02 0-4.18.46-6.49 1.38-2.31.93-4.17 1.42-5.6 1.47-2.17.09-4.33-.86-6.48-2.85-1.38-1.2-3.1-3.24-5.16-6.13A42.3 42.3 0 012.29 51 39.18 39.18 0 010 38.17c0-4.74 1.03-8.83 3.1-12.26a18.1 18.1 0 016.49-6.51c2.7-1.6 5.62-2.41 8.77-2.46 1.72 0 3.97.53 6.78 1.57 2.8 1.04 4.6 1.57 5.38 1.57.59 0 2.59-.62 5.97-1.85 3.2-1.15 5.9-1.62 8.1-1.43 6 .48 10.5 2.82 13.5 7.05-5.36 3.23-8.01 7.74-7.96 13.54.05 4.51 1.7 8.27 4.94 11.25A16.24 16.24 0 0060 51.86c-.4 1.14-.81 2.23-1.26 3.28zM45 1.42c0 3.53-1.3 6.84-3.9 9.9-3.13 3.63-6.92 5.73-11.02 5.4-.05-.42-.08-.87-.08-1.34 0-3.4 1.48-7.03 4.13-10 1.32-1.51 3-2.76 5.03-3.76A15.09 15.09 0 0144.92 0c.06.47.08.95.08 1.42z" fill="#FFF" fill-rule="nonzero"/></svg>
