<svg viewBox="0 0 269 74" xmlns="http://www.w3.org/2000/svg" title="FixFix">
  <g fill="none" fill-rule="evenodd">
    <path d="M43.77 1.8H1.02C.46 1.8 0 2.25 0 2.8v69.94c0 .56.46 1.01 1.02 1.01h17.7c.56 0 1.02-.45 1.02-1V47.92h21.63c.56 0 1.02-.45 1.02-1.01V32.65c0-.56-.46-1.01-1.02-1.01H19.74v-13.5h24.03c.56 0 1.02-.45 1.02-1.01V2.8c0-.56-.46-1.01-1.02-1.01M59.94 18.4c8.68 0 10.5-4.74 10.5-8.72 0-2.93-.9-5.18-2.66-6.67-1.72-1.46-4.37-2.2-7.9-2.2-3.57 0-6.13.7-7.84 2.14-1.73 1.47-2.6 3.73-2.6 6.73 0 3.98 1.82 8.72 10.5 8.72m8.76 4.28H50.92c-.56 0-1.02.46-1.02 1.02v49.04c0 .56.46 1.01 1.02 1.01h17.8c.56 0 1.02-.45 1.02-1V23.7c0-.56-.46-1.02-1.02-1.02m63.86 49.5l-16.43-24.12 16.42-23.8a1 1 0 0 0 .06-1.04 1.02 1.02 0 0 0-.9-.54H111.5c-.33 0-.65.17-.84.44l-7.91 11.36-7.77-11.35c-.2-.28-.5-.45-.85-.45H74.6c-.38 0-.72.21-.9.54a1 1 0 0 0 .05 1.04l16.2 23.8-16.2 24.12a1 1 0 0 0-.05 1.04c.18.33.52.53.9.53h19.54c.36 0 .68-.18.87-.47l8.41-13.3 8.6 13.3c.18.3.5.47.85.47h18.87c.38 0 .72-.2.9-.53a1 1 0 0 0-.05-1.04" fill="#424143"/>
    <path d="M179.92 1.85h-42.74c-.57 0-1.02.46-1.02 1.02V72.8a1 1 0 0 0 1.02 1h17.7c.56 0 1.02-.45 1.02-1V47.99h21.62c.57 0 1.02-.46 1.02-1.01V32.7a1 1 0 0 0-1.02-1.01H155.9V18.2h24.02c.57 0 1.02-.46 1.02-1.02V2.87c0-.56-.45-1.02-1.02-1.02m24.95 20.89h-17.8a1 1 0 0 0-1.02 1.01V72.8a1 1 0 0 0 1.02 1h17.8a1 1 0 0 0 1.02-1V23.75c0-.56-.46-1.01-1.02-1.01m-8.77-4.28c8.67 0 10.5-4.75 10.5-8.72 0-2.94-.9-5.18-2.66-6.68-1.72-1.46-4.38-2.2-7.9-2.2-3.57 0-6.13.7-7.84 2.15-1.73 1.46-2.6 3.73-2.6 6.73 0 3.97 1.81 8.72 10.5 8.72M268.48 72.23L252.05 48.1l16.42-23.8a1 1 0 0 0 .06-1.03 1.02 1.02 0 0 0-.9-.54H247.4c-.33 0-.65.16-.84.43l-7.91 11.37-7.77-11.35a1 1 0 0 0-.85-.44h-19.54a1 1 0 1 0-.85 1.58l16.2 23.8-16.19 24.1a1 1 0 0 0-.05 1.04c.18.33.52.54.9.54h19.52c.36 0 .68-.18.87-.48l8.41-13.3 8.6 13.3c.18.3.5.48.85.48h18.87c.38 0 .72-.21.9-.54a1 1 0 0 0-.05-1.04" fill="#71AC31" opacity="0.667" />
  </g>
</svg>
