<svg width="1284" height="257" viewBox="0 0 1284 257" fill="none" xmlns="http://www.w3.org/2000/svg" title="Jumpstart"><path fill-rule="evenodd" clip-rule="evenodd" d="M0 132.97V124C2.38 55.22 59.08 0 128.46 0 199.34 0 257 57.63 257 128.49 257 199.35 199.34 257 128.46 257 59.08 257 2.38 201.77 0 132.97zM128 237c60.1 0 109-48.89 109-109.01C237 67.89 188.1 19 128 19 67.89 19 19 67.9 19 127.99 19 188.1 67.89 237 128 237zm74-144.49c0-10.72-8.8-19.5-19.44-19.5V73A19.6 19.6 0 00163 90.94v3.12A19.6 19.6 0 00182.56 112 19.55 19.55 0 00202 92.51zM148 73h-20c-10.95 0-20 8.9-20 19.76V183h20c10.97 0 20-9.13 20-20V73zm-55.05 89.8c-.02-.26-.05-.53-.05-.82A19.6 19.6 0 0073.5 144a19.5 19.5 0 100 39 19.55 19.55 0 0019.4-18c0-.26.03-.5.05-.74a7.24 7.24 0 000-1.46z" fill="#F73859" opacity="0.667" /><path fill-rule="evenodd" clip-rule="evenodd" d="M310 215.66l1.88-18.09c3.76 1.25 11.27 1.56 12.53 1.56 10.49 0 14.56-7.63 14.56-16.99V74.24h20.04v107.9c0 19.33-9.39 35.86-34.6 35.86-2.98 0-9.4-1.1-14.41-2.34zm129.3-51.3c10.81 0 20.83-8.1 20.83-20.58V74.25h20.05v69.53c0 24.02-18.95 39.45-40.87 39.45-22.08 0-41.03-15.43-41.03-39.44V74.24h20.36v69.53c0 12.48 9.86 20.59 20.67 20.59zm138.55-17.46l34.3-72.65h17.22l13.16 107.42h-20.05l-8.3-71.56L586 169.5h-15.97l-28.34-59.4-8.46 71.56h-20.04l13.3-107.42h16.92l34.45 72.65zm142.46-54.88h-23.49v33.68h22.86c10.34 0 15.2-8.73 15.2-16.68 0-7.8-4.55-17-14.57-17zm-43.53 89.65V74.25h43.85c23.95 0 34.29 17.3 34.29 34.77 0 17.46-10.34 34.45-34.3 34.45h-23.8v38.2h-20.04zm103-31.34h20.04c.47 7.95 7.05 15.13 18.63 15.13 10.8 0 17.39-5.62 17.86-12.94.47-7.02-4.54-11.85-14.88-14.66l-13.31-3.43c-23.5-6.7-27.25-20.58-27.25-29.94 0-18.86 16.44-31.49 36.33-31.49 20.36 0 35.86 12.47 35.86 32.43h-20.04c0-8.58-6.11-14.03-16.13-14.03-8.93 0-16.13 4.99-16.13 12.63 0 3.11 1.25 9.5 12.84 12.31l13.31 3.9c24.27 6.7 30.22 20.11 29.44 32.74-.78 19.34-18.32 30.4-37.9 30.4-23.02 0-38.68-14.65-38.68-33.05zM879.94 92.5V74.25h80.96v18.24h-30.38v89.18h-20.2V92.5h-30.38zm171.9 89.18l-9.86-26.04h-40.25l-9.86 26.04h-21.3l40.4-107.42h21.61l40.4 107.42h-21.14zm-30.06-84.5l-13.31 41h26.93l-13.62-41zm120.38-5.15h-22.24v33.68h21.61c10.65 0 15.19-8.73 15.19-16.68 0-7.8-4.54-17-14.56-17zm7.98 50.67l27.56 38.98h-24.11l-25.37-38.2h-8.3v38.2h-20.05V74.25h43.23c23.8 0 34.45 17.3 34.45 34.77 0 15.28-8.15 30.71-27.41 33.67zm52.89-50.2V74.25H1284v18.24h-30.38v89.18h-20.2V92.5h-30.38z" fill="#000"/></svg>
