<svg width="180" height="66" viewBox="0 0 180 66" xmlns="http://www.w3.org/2000/svg" title="Kickpush"><path d="M180 0v65.25H0V0h180zm-70.04 21.6h-5.07v13.3c0 2.74.21 4.63 2.18 6.71 1.68 1.74 4.16 2.4 6.51 2.4 2.35 0 4.53-.69 6.27-2.4 1.8-1.83 2.15-3.97 2.17-6.4V21.6h-5.06v13.3c0 1.96-.74 4.02-3.16 4.07h-.45c-2.4-.05-3.33-2.06-3.39-3.9V21.6zm-53.33-.36c-4.44 0-8.44 2.57-8.44 7.2v8.38c0 4.62 4 7.19 8.44 7.19 4.34 0 7.93-1.98 8.42-7.13l.03-.3h-4.9c-.27 2.02-1.35 3.11-3.55 3.11-3.2 0-3.37-2.37-3.38-2.61v-8.9c.01-.25.18-2.62 3.38-2.62 2.2 0 3.28 1.09 3.55 3.11h4.9c-.38-5.37-4.03-7.43-8.45-7.43zm74.87 0a8.2 8.2 0 00-5.02 1.55 5.6 5.6 0 00-2.3 4.45c0 2.89 1.4 4.95 4.15 6.12l.5.21c2.68 1.15 5.22 2.23 5.22 3.75 0 1.35-.85 2.29-2.07 2.29-1.52 0-2.47-.95-2.75-2.6h-5.21c.2 3.85 3.65 7 7.7 7 4.56 0 7.75-2.82 7.75-7.05 0-3.57-3.37-5.17-6.08-6.47l-.84-.37c-1.54-.69-3.3-1.46-3.3-2.88 0-1.04 1.2-1.85 2.23-1.85 1.57 0 2.64 1.51 2.76 2.85h5.18c-.19-3.38-3.03-7-7.92-7zm-37 .14h-7.88v22.5h5v-7.1h3.09c2.52.04 4.57-.2 6.41-1.95 1.6-1.35 2.38-3.79 2.38-5.87a7.4 7.4 0 00-2.61-5.87c-1.79-1.62-4.49-1.71-6.66-1.71zm51.92.22h-5.07v22.06h5.07v-8.4h6.76v8.4h5.07V21.6h-5.07v8.63h-6.76V21.6zm-100.78 0h-5.06v22.06h5.06V21.6zm-18.82 0h-5.07v22.06h5.07v-9.6l6.28 9.6h5.79l-7-11.03 7-11.03h-5.8l-6.27 9.59v-9.6zm45.26 0H67v22.05h5.07v-9.59l6.27 9.6h5.8l-7-11.04 7-11.02h-5.8l-6.27 9.59v-9.6zm22.15 4.67c1.92 0 3.8.55 3.8 2.93 0 2.26-1.67 2.94-3.56 2.94h-2.85v-5.87z" fill="#FFF" fill-rule="evenodd"/></svg>
