<svg width="200" height="42" viewBox="0 0 200 42" xmlns="http://www.w3.org/2000/svg" title="Service Link"><g fill="#FFF" fill-rule="evenodd"><path d="M40.19 28.05h5.06c.26 2.38 1.82 3.44 4.64 3.44 1.94 0 3.76-.76 3.76-2.56 0-1.9-1.85-2.32-5.02-3.06-4.27-.97-7.74-2.02-7.74-6.58 0-4.53 3.7-6.59 8.53-6.59 4.82 0 8.23 2.24 8.55 6.53h-4.9c-.27-1.7-1.62-2.7-3.8-2.7-2.05 0-3.44.88-3.44 2.26 0 1.7 1.88 2.09 5.32 2.85 3.94.88 7.56 2.18 7.56 6.8 0 4.52-3.82 7.05-8.82 7.05-5.85 0-9.55-2.7-9.7-7.44M64.04 25.64h6.68c-.15-2.18-1.39-3.5-3.2-3.5-2.13 0-3.18 1.35-3.48 3.5m-4.55 1.53c0-4.7 3.26-8.3 8.02-8.3 2.24 0 4 .74 5.38 2 1.76 1.71 2.56 4.36 2.53 7.44h-11.4c.29 2.36 1.55 3.77 3.78 3.77 1.45 0 2.36-.56 2.86-1.53h4.47c-.8 2.76-3.36 4.88-7.38 4.88-5.12 0-8.26-3.59-8.26-8.26M81.38 22.11h.08c1-2.17 2.41-3.06 4.35-3.06.45 0 .77.03.97.12v4.03h-.11a5.44 5.44 0 00-.97-.09c-2.5-.03-4.15 1.53-4.15 4.59v7.26h-4.61V19.32h4.44v2.8zM87.69 19.32h4.76l1.91 6.29a56 56 0 011.24 5.47h.09s.58-3.38 1.23-5.47l1.97-6.3h4.65l-5.47 15.65H93.1l-5.41-15.64zM104.66 34.96h4.62V19.32h-4.62v15.64zm-.02-17.85h4.67V13.1h-4.67v4.02zM110.61 27.17c0-4.7 3.2-8.3 8.11-8.3 4.18 0 6.77 2.39 7.32 5.8h-4.46c-.33-1.44-1.27-2.35-2.8-2.35-2.32 0-3.5 1.9-3.5 4.85 0 2.85 1.18 4.79 3.5 4.79 1.7 0 2.74-1.03 2.94-2.82h4.44c-.15 3.56-2.97 6.32-7.32 6.32-5 0-8.23-3.62-8.23-8.3M131.7 25.64h6.67c-.15-2.18-1.38-3.5-3.2-3.5-2.12 0-3.18 1.35-3.47 3.5m-4.56 1.53c0-4.7 3.27-8.3 8.03-8.3 2.23 0 4 .74 5.38 2 1.76 1.71 2.56 4.36 2.53 7.44h-11.41c.3 2.36 1.56 3.77 3.8 3.77 1.43 0 2.34-.56 2.84-1.53h4.47c-.8 2.76-3.35 4.88-7.38 4.88-5.11 0-8.26-3.59-8.26-8.26M144.54 13.09h5v17.58h10.08v4.29h-15.08zM161.4 34.96h4.6V19.32h-4.6v15.64zm-.04-17.85h4.68V13.1h-4.68v4.02zM172.28 21.7h.1a5.08 5.08 0 014.81-2.82c3.44 0 5.44 2.3 5.44 5.79v10.29h-4.58v-9.4c0-1.71-.92-2.86-2.62-2.86-1.8 0-3 1.44-3 3.44v8.82h-4.61V19.32h4.46v2.38zM190.57 28.14L189 29.76v5.2h-4.56V13.09h4.56v6.82c0 2.29-.1 4.02-.15 5.02l5.14-5.61h5.36l-5.6 5.79 6.24 9.85h-5.35l-4.08-6.82zM15.51 16.86L0 25.36v16.3h31.02V25.39l-.05-.03z"/><path fill-opacity=".5" d="M17.03 0h-1.51v7.42H10.9V4.4H0v17.13l15.51-8.46 15.51 8.53V0z"/></g></svg>
