<svg xmlns="http://www.w3.org/2000/svg" viewBox="0 0 1062.5 86.7" title="Tony Robbins"><path d="M24.5 85.2V17H0V1.3h66.9V17H42.5v68.2h-18zM85.2 43.3C85.2 18 103.7-.1 129.1-.1c25.3 0 43.8 18.1 43.8 43.4 0 25.3-18.5 43.4-43.8 43.4-25.5 0-43.9-18.1-43.9-43.4zm69.3 0c0-15.7-9.9-27.5-25.4-27.5-15.6 0-25.5 11.8-25.5 27.5 0 15.6 9.9 27.6 25.5 27.6 15.4-.1 25.4-12 25.4-27.6zM257.1 85.2l-40-54.7v54.7h-17.9V1.3h18.4L256.5 54V1.3h17.9v83.9h-17.3zM328.2 85.2V50.8L296 1.3h20.4l20.8 33.6L358 1.3h20.3L346 50.8v34.3h-17.8zM493.3 85.2l-16.5-29.8h-13.1v29.8h-17.9V1.3h39.3c17.5 0 28.3 11.4 28.3 27 0 14.7-9.4 22.8-18.5 24.9l19 32h-20.6zm1.8-57c0-6.9-5.4-11.2-12.5-11.2h-18.9v22.6h18.9c7.1 0 12.5-4.3 12.5-11.4zM536.6 43.3c0-25.3 18.5-43.4 43.9-43.4 25.3 0 43.8 18.1 43.8 43.4 0 25.3-18.5 43.4-43.8 43.4-25.4 0-43.9-18.1-43.9-43.4zm69.3 0c0-15.7-9.9-27.5-25.4-27.5-15.6 0-25.5 11.8-25.5 27.5 0 15.6 9.9 27.6 25.5 27.6 15.5-.1 25.4-12 25.4-27.6zM650.7 85.2V1.3h44.2c16 0 24.2 10.2 24.2 21.4 0 10.4-6.5 17.6-14.5 19.2 9.1 1.4 16.1 10.1 16.1 20.5 0 12.7-8.3 22.8-24.4 22.8h-45.6zm50-59.4c0-5.2-3.8-8.8-9.8-8.8h-22.4v17.6h22.4c6.1 0 9.8-3.4 9.8-8.8zm1.7 34.1c0-5.3-3.8-9.6-10.7-9.6h-23.1v19.1h23.1c6.6 0 10.7-3.5 10.7-9.5zM747.9 85.2V1.3H792c16 0 24.2 10.2 24.2 21.4 0 10.4-6.5 17.6-14.5 19.2 9.1 1.4 16.1 10.1 16.1 20.5 0 12.7-8.3 22.8-24.4 22.8h-45.5zM798 25.8c0-5.2-3.8-8.8-9.8-8.8h-22.4v17.6h22.4c6 0 9.8-3.4 9.8-8.8zm1.6 34.1c0-5.3-3.8-9.6-10.7-9.6h-23.1v19.1h23.1c6.7 0 10.7-3.5 10.7-9.5zM845.1 85.2V1.3H863v83.9h-17.9zM951.3 85.2l-40-54.7v54.7h-17.9V1.3h18.4L950.7 54V1.3h17.9v83.9h-17.3zM993.2 73.3l9.8-14a36.7 36.7 0 0026.7 11.4c9.9 0 14.6-4.4 14.6-9.3 0-14.6-48.3-4.4-48.3-36 0-14 12.1-25.5 31.8-25.5 13.3 0 24.4 4 32.7 11.7l-9.9 13.3c-6.8-6.3-15.9-9.2-24.4-9.2-7.5 0-11.8 3.3-11.8 8.3 0 13.2 48.2 4.3 48.2 35.6 0 15.3-11.1 26.9-33.6 26.9-16.3.2-27.9-5.2-35.8-13.2z"/></svg>
