<svg width="217" height="40" viewBox="0 0 217 40" xmlns="http://www.w3.org/2000/svg" title="Veritooth"><g fill="none" fill-rule="evenodd"><path fill="#000" d="M20.91 40L0 0h4.37l18.79 35.93L41.94 0h4.37L25.4 40z"/><path fill="#000" d="M13.87 9.8L8.74 0h4.38l5.12 9.8z"/><path fill="#000" d="M3.52 0h7.51v4.37H3.52z"/><path fill="#07ACB6" opacity="0.667" d="M19.95 13.07l3.21 6.13L33.2 0h4.37L23.16 27.57l-7.58-14.5z"/><g><path fill="#07ACB6" opacity="0.667" d="M70.92 11.85h3.76l-8 20H62.6l-8-20h3.76l6.28 16.28zM86.2 11.33a9.2 9.2 0 017.2 3.1 10.78 10.78 0 012.77 7.46c0 .5-.04 1.03-.12 1.56H79.3a6.6 6.6 0 002.46 4.16 7.65 7.65 0 004.78 1.48c2.64 0 4.56-.97 5.76-2.92l2.96 1.68c-1.95 3.02-4.88 4.52-8.8 4.52-3.18 0-5.76-1-7.74-2.98a10.22 10.22 0 01-2.98-7.54c0-3.01.97-5.52 2.92-7.52 1.94-2 4.46-3 7.56-3zm0 3.28c-1.86 0-3.4.53-4.63 1.58a6.84 6.84 0 00-2.28 4.22h13.36a6.67 6.67 0 00-2.24-4.32 6.42 6.42 0 00-4.2-1.48zM103.84 15.21c1.15-2.48 3.23-3.72 6.24-3.72v3.64a6.3 6.3 0 00-4.4 1.36c-1.23.99-1.84 2.58-1.84 4.76v10.6h-3.48v-20h3.48v3.36zM117.52 11.85v20h-3.48v-20h3.48zm-1.72-8.32c.64 0 1.19.24 1.64.7.45.47.68 1.02.68 1.66 0 .64-.23 1.19-.68 1.64-.45.46-1 .68-1.64.68-.67 0-1.23-.22-1.68-.68-.45-.45-.68-1-.68-1.64 0-.64.23-1.2.68-1.66.45-.46 1.01-.7 1.68-.7z"/><path d="M134.28 15.21h-5.32v10.84c0 .99.2 1.69.58 2.1.39.42.98.63 1.78.64.8.02 1.79 0 2.96-.06v3.12c-3.04.4-5.27.16-6.68-.74-1.41-.9-2.12-2.58-2.12-5.06V15.21h-3.96v-3.36h3.96V7.3l3.48-1.04v5.6h5.32v3.36zM146.62 11.33c2.94 0 5.43 1.02 7.48 3.04a10.1 10.1 0 013.08 7.48 10.1 10.1 0 01-3.08 7.48 10.26 10.26 0 01-7.48 3.04c-2.93 0-5.42-1.01-7.46-3.04a10.13 10.13 0 01-3.06-7.48c0-2.96 1.02-5.45 3.06-7.48a10.19 10.19 0 017.46-3.04zm0 3.4a6.8 6.8 0 00-5 2.04 6.9 6.9 0 00-2.04 5.08 6.9 6.9 0 002.04 5.08 6.8 6.8 0 005 2.04c2 0 3.68-.68 5.04-2.04a6.9 6.9 0 002.04-5.08 6.9 6.9 0 00-2.04-5.08 6.85 6.85 0 00-5.04-2.04zM169.6 11.33c2.93 0 5.43 1.02 7.48 3.04a10.1 10.1 0 013.08 7.48 10.1 10.1 0 01-3.08 7.48 10.26 10.26 0 01-7.48 3.04c-2.94 0-5.42-1.01-7.47-3.04a10.13 10.13 0 01-3.06-7.48c0-2.96 1.02-5.45 3.06-7.48a10.19 10.19 0 017.47-3.04zm0 3.4a6.8 6.8 0 00-5 2.04 6.9 6.9 0 00-2.04 5.08 6.9 6.9 0 002.04 5.08 6.8 6.8 0 005 2.04c2 0 3.68-.68 5.04-2.04a6.9 6.9 0 002.04-5.08 6.9 6.9 0 00-2.04-5.08 6.85 6.85 0 00-5.04-2.04zM194.17 15.21h-5.32v10.84c0 .99.2 1.69.58 2.1.39.42.98.63 1.78.64.8.02 1.79 0 2.96-.06v3.12c-3.04.4-5.27.16-6.68-.74-1.42-.9-2.12-2.58-2.12-5.06V15.21h-3.96v-3.36h3.96V7.3l3.48-1.04v5.6h5.32v3.36zM208.19 11.33c2.35 0 4.23.74 5.64 2.22 1.42 1.48 2.12 3.49 2.12 6.02v12.28h-3.48V19.77c0-1.62-.44-2.88-1.32-3.78a4.88 4.88 0 00-3.64-1.34c-1.73 0-3.13.54-4.2 1.62-1.07 1.08-1.6 2.74-1.6 4.98v10.6h-3.48v-28h3.48v10.88c1.41-2.26 3.57-3.4 6.48-3.4z" fill="#000"/></g></g></svg>
