<?xml version="1.0" encoding="UTF-8"?>
<svg width="1300px" height="1300px" viewBox="0 0 1300 1300" version="1.1" xmlns="http://www.w3.org/2000/svg" xmlns:xlink="http://www.w3.org/1999/xlink">
    <!-- Generator: Sketch 60.1 (88133) - https://sketch.com -->
    <title>Artboard Copy</title>
    <desc>Created with Sketch.</desc>
    <g id="Artboard-Copy" stroke="none" stroke-width="1" fill="none" fill-rule="evenodd">
        <g id="Group-7" transform="translate(-53.000000, -93.000000)">
            <g>
                <g id="Group-2" stroke="#F4B5B5" stroke-linecap="round" stroke-linejoin="round" stroke-width="9">
                    <circle id="Oval" cx="672.5" cy="320.5" r="60.5"></circle>
                    <path d="M264,376 C290.509668,376 312,354.509668 312,328 C312,301.490332 290.509668,280 264,280" id="Oval" transform="translate(288.000000, 328.000000) rotate(120.000000) translate(-288.000000, -328.000000) "></path>
                    <path d="M1140.80594,1090.40749 C1169.52474,1090.40749 1192.80594,1067.1263 1192.80594,1038.40749 C1192.80594,1009.68868 1169.52474,986.407489 1140.80594,986.407489" id="Oval" transform="translate(1166.805937, 1038.407489) rotate(-155.000000) translate(-1166.805937, -1038.407489) "></path>
                    <ellipse id="Oval" cx="81.5" cy="199.5" rx="49" ry="48.5"></ellipse>
                    <circle id="Oval" cx="1169.5" cy="101.5" r="60.5"></circle>
                    <ellipse id="Oval" cx="714.5" cy="1230.5" rx="44" ry="43.5"></ellipse>
                    <ellipse id="Oval" cx="628.5" cy="829.5" rx="42" ry="41.5"></ellipse>
                    <ellipse id="Oval" cx="1048.5" cy="986.5" rx="42" ry="41.5"></ellipse>
                    <ellipse id="Oval" cx="189.5" cy="1277.5" rx="28" ry="27.5"></ellipse>
                    <rect id="Rectangle" transform="translate(470.000000, 548.000000) rotate(55.000000) translate(-470.000000, -548.000000) " x="417" y="495" width="106" height="106"></rect>
                    <rect id="Rectangle" transform="translate(880.000000, 756.000000) rotate(19.000000) translate(-880.000000, -756.000000) " x="827" y="703" width="106" height="106"></rect>
                    <rect id="Rectangle" transform="translate(840.000000, 375.000000) rotate(40.000000) translate(-840.000000, -375.000000) " x="808" y="343" width="64" height="64"></rect>
                    <rect id="Rectangle" transform="translate(914.000000, 1104.000000) rotate(47.000000) translate(-914.000000, -1104.000000) " x="872" y="1062" width="84" height="84"></rect>
                    <rect id="Rectangle" transform="translate(265.000000, 106.000000) rotate(55.000000) translate(-265.000000, -106.000000) " x="189" y="30" width="152" height="152"></rect>
                    <rect id="Rectangle" transform="translate(793.000000, 142.000000) rotate(23.000000) translate(-793.000000, -142.000000) " x="740" y="89" width="106" height="106"></rect>
                    <polygon id="Triangle" transform="translate(830.000000, 554.500000) rotate(-40.000000) translate(-830.000000, -554.500000) " points="830 512 877 597 783 597"></polygon>
                    <polygon id="Triangle" transform="translate(1062.000000, 682.500000) rotate(-10.000000) translate(-1062.000000, -682.500000) " points="1062 640 1109 725 1015 725"></polygon>
                    <polygon id="Triangle" points="1191 1135 1238 1220 1144 1220"></polygon>
                    <polygon id="Triangle" points="1191 533 1223 590 1159 590"></polygon>
                    <polygon id="Triangle" transform="translate(1238.000000, 363.500000) rotate(30.000000) translate(-1238.000000, -363.500000) " points="1238 335 1270 392 1206 392"></polygon>
                    <polygon id="Triangle" transform="translate(583.000000, 109.000000) rotate(174.000000) translate(-583.000000, -109.000000) " points="583 48 650 170 516 170"></polygon>
                    <polygon id="Triangle" transform="translate(64.000000, 691.000000) rotate(-94.000000) translate(-64.000000, -691.000000) " points="64 636 125 746 3 746"></polygon>
                    <polygon id="Triangle" transform="translate(457.000000, 1061.500000) rotate(27.000000) translate(-457.000000, -1061.500000) " points="457 1000.5 524 1122.5 390 1122.5"></polygon>
                    <g id="Group-5" transform="translate(608.500000, 665.500000) rotate(-29.000000) translate(-608.500000, -665.500000) translate(565.000000, 622.000000)">
                        <line x1="0.5" y1="43.5" x2="86.5" y2="43.5" id="Line"></line>
                        <line x1="0.5" y1="43.5" x2="86.5" y2="43.5" id="Line" transform="translate(43.500000, 43.500000) rotate(90.000000) translate(-43.500000, -43.500000) "></line>
                    </g>
                    <g id="Group-4" transform="translate(689.500000, 492.500000) rotate(-50.000000) translate(-689.500000, -492.500000) translate(646.000000, 449.000000)">
                        <line x1="0.5" y1="43.5" x2="86.5" y2="43.5" id="Line"></line>
                        <line x1="0.5" y1="43.5" x2="86.5" y2="43.5" id="Line" transform="translate(43.500000, 43.500000) rotate(90.000000) translate(-43.500000, -43.500000) "></line>
                    </g>
                    <g id="Group-3" transform="translate(1328.500000, 841.500000) rotate(-29.000000) translate(-1328.500000, -841.500000) translate(1285.000000, 798.000000)">
                        <line x1="0.5" y1="43.5" x2="86.5" y2="43.5" id="Line"></line>
                        <line x1="0.5" y1="43.5" x2="86.5" y2="43.5" id="Line" transform="translate(43.500000, 43.500000) rotate(90.000000) translate(-43.500000, -43.500000) "></line>
                    </g>
                    <g id="Group-6" transform="translate(242.500000, 1138.500000) rotate(40.000000) translate(-242.500000, -1138.500000) translate(199.000000, 1095.000000)">
                        <line x1="0.5" y1="43.5" x2="86.5" y2="43.5" id="Line"></line>
                        <line x1="0.5" y1="43.5" x2="86.5" y2="43.5" id="Line" transform="translate(43.500000, 43.500000) rotate(90.000000) translate(-43.500000, -43.500000) "></line>
                    </g>
                    <line x1="478.5" y1="1277.5" x2="564.5" y2="1277.5" id="Line"></line>
                    <line x1="478.5" y1="1277.5" x2="564.5" y2="1277.5" id="Line" transform="translate(521.500000, 1277.500000) rotate(90.000000) translate(-521.500000, -1277.500000) "></line>
                    <polyline id="Path-2" transform="translate(304.551758, 689.110352) rotate(-8.000000) translate(-304.551758, -689.110352) " points="204 709.220703 244.220703 669 284.441406 709.220703 324.662109 669 364.882812 709.220703 405.103516 669"></polyline>
                    <polyline id="Path-2" transform="translate(953.646505, 1265.889764) rotate(27.000000) translate(-953.646505, -1265.889764) " points="861.146505 1284.38976 898.146505 1247.38976 935.146505 1284.38976 972.146505 1247.38976 1009.1465 1284.38976 1046.1465 1247.38976"></polyline>
                    <polyline id="Path-2" points="943 522.220703 983.220703 482 1023.44141 522.220703 1063.66211 482 1103.88281 522.220703 1144.10352 482"></polyline>
                    <polyline id="Path-2" transform="translate(482.551758, 336.110352) rotate(-35.000000) translate(-482.551758, -336.110352) " points="382 356.220703 422.220703 316 462.441406 356.220703 502.662109 316 542.882812 356.220703 583.103516 316"></polyline>
                    <polyline id="Path-2" transform="translate(141.772461, 457.110352) rotate(-14.000000) translate(-141.772461, -457.110352) " points="1 477.220703 41.2207031 437 81.4414063 477.220703 121.662109 437 161.882813 477.220703 202.103516 437 242.324219 477.220703 282.544922 437"></polyline>
                    <polyline id="Path-2" transform="translate(611.500000, 1025.500000) rotate(58.000000) translate(-611.500000, -1025.500000) " points="510 1040 539 1011 568 1040 597 1011 626 1040 655 1011 684 1040 713 1011"></polyline>
                    <polyline id="Path-2" points="947 332.220703 987.220703 292 1027.44141 332.220703 1067.66211 292 1107.88281 332.220703 1148.10352 292 1188.32422 332.220703 1228.54492 292"></polyline>
                    <polyline id="Path-2" transform="translate(1343.000000, 1062.000000) rotate(-18.000000) translate(-1343.000000, -1062.000000) " points="1238 1077 1268 1047 1298 1077 1328 1047 1358 1077 1388 1047 1418 1077 1448 1047"></polyline>
                </g>
                <g id="Group" transform="translate(478.000000, 1234.000000)"></g>
                <line x1="334.75" y1="474.185391" x2="295.773438" y2="548" id="Path-3" stroke="#F4B5B5" stroke-width="9" stroke-linecap="round" stroke-linejoin="round"></line>
                <line x1="472.976562" y1="126" x2="434" y2="199.814609" id="Path-3" stroke="#F4B5B5" stroke-width="9" stroke-linecap="round" stroke-linejoin="round"></line>
                <line x1="1286.97656" y1="151" x2="1248" y2="224.814609" id="Path-3" stroke="#F4B5B5" stroke-width="9" stroke-linecap="round" stroke-linejoin="round"></line>
                <line x1="245.023438" y1="795.027344" x2="191.185391" y2="860.492188" id="Path-4" stroke="#F4B5B5" stroke-width="9" stroke-linecap="round" stroke-linejoin="round"></line>
                <line x1="422.101562" y1="804.066406" x2="445.789062" y2="890" id="Path-5" stroke="#F4B5B5" stroke-width="9" stroke-linecap="round" stroke-linejoin="round"></line>
                <line x1="396.185391" y1="945.214844" x2="344.84375" y2="1010.11035" id="Path-6" stroke="#F4B5B5" stroke-width="9" stroke-linecap="round" stroke-linejoin="round"></line>
                <line x1="732.5" y1="1126.91406" x2="806.185391" y2="1155.14844" id="Path-7" stroke="#F4B5B5" stroke-width="9" stroke-linecap="round" stroke-linejoin="round"></line>
                <line x1="358.777344" y1="1191.22656" x2="370.51457" y2="1277.5" id="Path-8" stroke="#F4B5B5" stroke-width="9" stroke-linecap="round" stroke-linejoin="round"></line>
                <line x1="99.9140625" y1="1249.72266" x2="28.3046875" y2="1312.70703" id="Path-9" stroke="#F4B5B5" stroke-width="9" stroke-linecap="round" stroke-linejoin="round"></line>
                <line x1="1212" y1="689.110352" x2="1285" y2="756" id="Path-10" stroke="#F4B5B5" stroke-width="9" stroke-linecap="round" stroke-linejoin="round"></line>
                <path d="M204,938.648438 C191.5,938.648438 186.792969,948.626953 186.792969,958.455078 C186.792969,968.283203 193.670898,977.662598 208.072754,977.662598 C222.474609,977.662598 237.847656,971.757812 237.847656,950.072266 C237.847656,928.386719 222.208984,916 200.544922,916 C178.880859,916 156.117187,936.378906 159.208984,967.439453 C162.300781,998.5 191.185391,1013.48828 218.104414,1013.48828 C245.023437,1013.48828 278,984.781494 278,965.036133" id="Path-11" stroke="#F4B5B5" stroke-width="9" stroke-linecap="round" stroke-linejoin="round"></path>
                <path d="M1137.07435,825.648438 C1124.57435,825.648438 1119.86732,835.626953 1119.86732,845.455078 C1119.86732,855.283203 1126.74525,864.662598 1141.14711,864.662598 C1155.54896,864.662598 1170.92201,858.757812 1170.92201,837.072266 C1170.92201,815.386719 1155.28334,803 1133.61927,803 C1111.95521,803 1089.19154,823.378906 1092.28334,854.439453 C1095.37513,885.5 1124.25974,900.488281 1151.17877,900.488281 C1178.09779,900.488281 1211.07435,871.781494 1211.07435,852.036133" id="Path-11" stroke="#F4B5B5" stroke-width="9" stroke-linecap="round" stroke-linejoin="round" transform="translate(1151.537176, 851.744141) rotate(62.000000) translate(-1151.537176, -851.744141) "></path>
                <path d="M792.074352,934.648438 C779.574352,934.648438 774.867321,944.626953 774.867321,954.455078 C774.867321,964.283203 781.745251,973.662598 796.147106,973.662598 C810.548962,973.662598 825.922009,967.757812 825.922009,946.072266 C825.922009,924.386719 810.283337,912 788.619274,912 C766.955212,912 744.19154,932.378906 747.283337,963.439453 C750.375134,994.5 779.259743,1009.48828 806.178766,1009.48828 C833.09779,1009.48828 866.074352,980.781494 866.074352,961.036133" id="Path-11" stroke="#F4B5B5" stroke-width="9" stroke-linecap="round" stroke-linejoin="round"></path>
                <path d="M975.074352,99.6484375 C962.574352,99.6484375 957.867321,109.626953 957.867321,119.455078 C957.867321,129.283203 964.745251,138.662598 979.147106,138.662598 C993.548962,138.662598 1008.92201,132.757812 1008.92201,111.072266 C1008.92201,89.3867187 993.283337,77 971.619274,77 C949.955212,77 927.19154,97.3789063 930.283337,128.439453 C933.375134,159.5 962.259743,174.488281 989.178766,174.488281 C1016.09779,174.488281 1049.07435,145.781494 1049.07435,126.036133" id="Path-11" stroke="#F4B5B5" stroke-width="9" stroke-linecap="round" stroke-linejoin="round"></path>
            </g>
        </g>
        <g id="Group-7" transform="translate(1247.000000, -93.000000)">
            <g>
                <g id="Group-2" stroke="#F4B5B5" stroke-linecap="round" stroke-linejoin="round" stroke-width="9">
                    <circle id="Oval" cx="672.5" cy="320.5" r="60.5"></circle>
                    <path d="M264,376 C290.509668,376 312,354.509668 312,328 C312,301.490332 290.509668,280 264,280" id="Oval" transform="translate(288.000000, 328.000000) rotate(120.000000) translate(-288.000000, -328.000000) "></path>
                    <path d="M1140.80594,1090.40749 C1169.52474,1090.40749 1192.80594,1067.1263 1192.80594,1038.40749 C1192.80594,1009.68868 1169.52474,986.407489 1140.80594,986.407489" id="Oval" transform="translate(1166.805937, 1038.407489) rotate(-155.000000) translate(-1166.805937, -1038.407489) "></path>
                    <ellipse id="Oval" cx="81.5" cy="199.5" rx="49" ry="48.5"></ellipse>
                    <circle id="Oval" cx="1169.5" cy="101.5" r="60.5"></circle>
                    <ellipse id="Oval" cx="714.5" cy="1230.5" rx="44" ry="43.5"></ellipse>
                    <ellipse id="Oval" cx="628.5" cy="829.5" rx="42" ry="41.5"></ellipse>
                    <ellipse id="Oval" cx="1048.5" cy="986.5" rx="42" ry="41.5"></ellipse>
                    <ellipse id="Oval" cx="189.5" cy="1277.5" rx="28" ry="27.5"></ellipse>
                    <rect id="Rectangle" transform="translate(470.000000, 548.000000) rotate(55.000000) translate(-470.000000, -548.000000) " x="417" y="495" width="106" height="106"></rect>
                    <rect id="Rectangle" transform="translate(880.000000, 756.000000) rotate(19.000000) translate(-880.000000, -756.000000) " x="827" y="703" width="106" height="106"></rect>
                    <rect id="Rectangle" transform="translate(840.000000, 375.000000) rotate(40.000000) translate(-840.000000, -375.000000) " x="808" y="343" width="64" height="64"></rect>
                    <rect id="Rectangle" transform="translate(914.000000, 1104.000000) rotate(47.000000) translate(-914.000000, -1104.000000) " x="872" y="1062" width="84" height="84"></rect>
                    <rect id="Rectangle" transform="translate(265.000000, 106.000000) rotate(55.000000) translate(-265.000000, -106.000000) " x="189" y="30" width="152" height="152"></rect>
                    <rect id="Rectangle" transform="translate(793.000000, 142.000000) rotate(23.000000) translate(-793.000000, -142.000000) " x="740" y="89" width="106" height="106"></rect>
                    <polygon id="Triangle" transform="translate(830.000000, 554.500000) rotate(-40.000000) translate(-830.000000, -554.500000) " points="830 512 877 597 783 597"></polygon>
                    <polygon id="Triangle" transform="translate(1062.000000, 682.500000) rotate(-10.000000) translate(-1062.000000, -682.500000) " points="1062 640 1109 725 1015 725"></polygon>
                    <polygon id="Triangle" points="1191 1135 1238 1220 1144 1220"></polygon>
                    <polygon id="Triangle" points="1191 533 1223 590 1159 590"></polygon>
                    <polygon id="Triangle" transform="translate(1238.000000, 363.500000) rotate(30.000000) translate(-1238.000000, -363.500000) " points="1238 335 1270 392 1206 392"></polygon>
                    <polygon id="Triangle" transform="translate(583.000000, 109.000000) rotate(174.000000) translate(-583.000000, -109.000000) " points="583 48 650 170 516 170"></polygon>
                    <polygon id="Triangle" transform="translate(64.000000, 691.000000) rotate(-94.000000) translate(-64.000000, -691.000000) " points="64 636 125 746 3 746"></polygon>
                    <polygon id="Triangle" transform="translate(457.000000, 1061.500000) rotate(27.000000) translate(-457.000000, -1061.500000) " points="457 1000.5 524 1122.5 390 1122.5"></polygon>
                    <g id="Group-5" transform="translate(608.500000, 665.500000) rotate(-29.000000) translate(-608.500000, -665.500000) translate(565.000000, 622.000000)">
                        <line x1="0.5" y1="43.5" x2="86.5" y2="43.5" id="Line"></line>
                        <line x1="0.5" y1="43.5" x2="86.5" y2="43.5" id="Line" transform="translate(43.500000, 43.500000) rotate(90.000000) translate(-43.500000, -43.500000) "></line>
                    </g>
                    <g id="Group-4" transform="translate(689.500000, 492.500000) rotate(-50.000000) translate(-689.500000, -492.500000) translate(646.000000, 449.000000)">
                        <line x1="0.5" y1="43.5" x2="86.5" y2="43.5" id="Line"></line>
                        <line x1="0.5" y1="43.5" x2="86.5" y2="43.5" id="Line" transform="translate(43.500000, 43.500000) rotate(90.000000) translate(-43.500000, -43.500000) "></line>
                    </g>
                    <g id="Group-3" transform="translate(1328.500000, 841.500000) rotate(-29.000000) translate(-1328.500000, -841.500000) translate(1285.000000, 798.000000)">
                        <line x1="0.5" y1="43.5" x2="86.5" y2="43.5" id="Line"></line>
                        <line x1="0.5" y1="43.5" x2="86.5" y2="43.5" id="Line" transform="translate(43.500000, 43.500000) rotate(90.000000) translate(-43.500000, -43.500000) "></line>
                    </g>
                    <g id="Group-6" transform="translate(242.500000, 1138.500000) rotate(40.000000) translate(-242.500000, -1138.500000) translate(199.000000, 1095.000000)">
                        <line x1="0.5" y1="43.5" x2="86.5" y2="43.5" id="Line"></line>
                        <line x1="0.5" y1="43.5" x2="86.5" y2="43.5" id="Line" transform="translate(43.500000, 43.500000) rotate(90.000000) translate(-43.500000, -43.500000) "></line>
                    </g>
                    <line x1="478.5" y1="1277.5" x2="564.5" y2="1277.5" id="Line"></line>
                    <line x1="478.5" y1="1277.5" x2="564.5" y2="1277.5" id="Line" transform="translate(521.500000, 1277.500000) rotate(90.000000) translate(-521.500000, -1277.500000) "></line>
                    <polyline id="Path-2" transform="translate(304.551758, 689.110352) rotate(-8.000000) translate(-304.551758, -689.110352) " points="204 709.220703 244.220703 669 284.441406 709.220703 324.662109 669 364.882812 709.220703 405.103516 669"></polyline>
                    <polyline id="Path-2" transform="translate(953.646505, 1265.889764) rotate(27.000000) translate(-953.646505, -1265.889764) " points="861.146505 1284.38976 898.146505 1247.38976 935.146505 1284.38976 972.146505 1247.38976 1009.1465 1284.38976 1046.1465 1247.38976"></polyline>
                    <polyline id="Path-2" points="943 522.220703 983.220703 482 1023.44141 522.220703 1063.66211 482 1103.88281 522.220703 1144.10352 482"></polyline>
                    <polyline id="Path-2" transform="translate(482.551758, 336.110352) rotate(-35.000000) translate(-482.551758, -336.110352) " points="382 356.220703 422.220703 316 462.441406 356.220703 502.662109 316 542.882812 356.220703 583.103516 316"></polyline>
                    <polyline id="Path-2" transform="translate(141.772461, 457.110352) rotate(-14.000000) translate(-141.772461, -457.110352) " points="1 477.220703 41.2207031 437 81.4414063 477.220703 121.662109 437 161.882813 477.220703 202.103516 437 242.324219 477.220703 282.544922 437"></polyline>
                    <polyline id="Path-2" transform="translate(611.500000, 1025.500000) rotate(58.000000) translate(-611.500000, -1025.500000) " points="510 1040 539 1011 568 1040 597 1011 626 1040 655 1011 684 1040 713 1011"></polyline>
                    <polyline id="Path-2" points="947 332.220703 987.220703 292 1027.44141 332.220703 1067.66211 292 1107.88281 332.220703 1148.10352 292 1188.32422 332.220703 1228.54492 292"></polyline>
                    <polyline id="Path-2" transform="translate(1343.000000, 1062.000000) rotate(-18.000000) translate(-1343.000000, -1062.000000) " points="1238 1077 1268 1047 1298 1077 1328 1047 1358 1077 1388 1047 1418 1077 1448 1047"></polyline>
                </g>
                <g id="Group" transform="translate(478.000000, 1234.000000)"></g>
                <line x1="334.75" y1="474.185391" x2="295.773438" y2="548" id="Path-3" stroke="#F4B5B5" stroke-width="9" stroke-linecap="round" stroke-linejoin="round"></line>
                <line x1="472.976562" y1="126" x2="434" y2="199.814609" id="Path-3" stroke="#F4B5B5" stroke-width="9" stroke-linecap="round" stroke-linejoin="round"></line>
                <line x1="1286.97656" y1="151" x2="1248" y2="224.814609" id="Path-3" stroke="#F4B5B5" stroke-width="9" stroke-linecap="round" stroke-linejoin="round"></line>
                <line x1="245.023438" y1="795.027344" x2="191.185391" y2="860.492188" id="Path-4" stroke="#F4B5B5" stroke-width="9" stroke-linecap="round" stroke-linejoin="round"></line>
                <line x1="422.101562" y1="804.066406" x2="445.789062" y2="890" id="Path-5" stroke="#F4B5B5" stroke-width="9" stroke-linecap="round" stroke-linejoin="round"></line>
                <line x1="396.185391" y1="945.214844" x2="344.84375" y2="1010.11035" id="Path-6" stroke="#F4B5B5" stroke-width="9" stroke-linecap="round" stroke-linejoin="round"></line>
                <line x1="732.5" y1="1126.91406" x2="806.185391" y2="1155.14844" id="Path-7" stroke="#F4B5B5" stroke-width="9" stroke-linecap="round" stroke-linejoin="round"></line>
                <line x1="358.777344" y1="1191.22656" x2="370.51457" y2="1277.5" id="Path-8" stroke="#F4B5B5" stroke-width="9" stroke-linecap="round" stroke-linejoin="round"></line>
                <line x1="99.9140625" y1="1249.72266" x2="28.3046875" y2="1312.70703" id="Path-9" stroke="#F4B5B5" stroke-width="9" stroke-linecap="round" stroke-linejoin="round"></line>
                <line x1="1212" y1="689.110352" x2="1285" y2="756" id="Path-10" stroke="#F4B5B5" stroke-width="9" stroke-linecap="round" stroke-linejoin="round"></line>
                <path d="M204,938.648438 C191.5,938.648438 186.792969,948.626953 186.792969,958.455078 C186.792969,968.283203 193.670898,977.662598 208.072754,977.662598 C222.474609,977.662598 237.847656,971.757812 237.847656,950.072266 C237.847656,928.386719 222.208984,916 200.544922,916 C178.880859,916 156.117187,936.378906 159.208984,967.439453 C162.300781,998.5 191.185391,1013.48828 218.104414,1013.48828 C245.023437,1013.48828 278,984.781494 278,965.036133" id="Path-11" stroke="#F4B5B5" stroke-width="9" stroke-linecap="round" stroke-linejoin="round"></path>
                <path d="M1137.07435,825.648438 C1124.57435,825.648438 1119.86732,835.626953 1119.86732,845.455078 C1119.86732,855.283203 1126.74525,864.662598 1141.14711,864.662598 C1155.54896,864.662598 1170.92201,858.757812 1170.92201,837.072266 C1170.92201,815.386719 1155.28334,803 1133.61927,803 C1111.95521,803 1089.19154,823.378906 1092.28334,854.439453 C1095.37513,885.5 1124.25974,900.488281 1151.17877,900.488281 C1178.09779,900.488281 1211.07435,871.781494 1211.07435,852.036133" id="Path-11" stroke="#F4B5B5" stroke-width="9" stroke-linecap="round" stroke-linejoin="round" transform="translate(1151.537176, 851.744141) rotate(62.000000) translate(-1151.537176, -851.744141) "></path>
                <path d="M792.074352,934.648438 C779.574352,934.648438 774.867321,944.626953 774.867321,954.455078 C774.867321,964.283203 781.745251,973.662598 796.147106,973.662598 C810.548962,973.662598 825.922009,967.757812 825.922009,946.072266 C825.922009,924.386719 810.283337,912 788.619274,912 C766.955212,912 744.19154,932.378906 747.283337,963.439453 C750.375134,994.5 779.259743,1009.48828 806.178766,1009.48828 C833.09779,1009.48828 866.074352,980.781494 866.074352,961.036133" id="Path-11" stroke="#F4B5B5" stroke-width="9" stroke-linecap="round" stroke-linejoin="round"></path>
                <path d="M975.074352,99.6484375 C962.574352,99.6484375 957.867321,109.626953 957.867321,119.455078 C957.867321,129.283203 964.745251,138.662598 979.147106,138.662598 C993.548962,138.662598 1008.92201,132.757812 1008.92201,111.072266 C1008.92201,89.3867187 993.283337,77 971.619274,77 C949.955212,77 927.19154,97.3789063 930.283337,128.439453 C933.375134,159.5 962.259743,174.488281 989.178766,174.488281 C1016.09779,174.488281 1049.07435,145.781494 1049.07435,126.036133" id="Path-11" stroke="#F4B5B5" stroke-width="9" stroke-linecap="round" stroke-linejoin="round"></path>
            </g>
        </g>
        <g id="Group-7" transform="translate(-53.000000, 1207.000000)">
            <g>
                <g id="Group-2" stroke="#F4B5B5" stroke-linecap="round" stroke-linejoin="round" stroke-width="9">
                    <circle id="Oval" cx="672.5" cy="320.5" r="60.5"></circle>
                    <path d="M264,376 C290.509668,376 312,354.509668 312,328 C312,301.490332 290.509668,280 264,280" id="Oval" transform="translate(288.000000, 328.000000) rotate(120.000000) translate(-288.000000, -328.000000) "></path>
                    <path d="M1140.80594,1090.40749 C1169.52474,1090.40749 1192.80594,1067.1263 1192.80594,1038.40749 C1192.80594,1009.68868 1169.52474,986.407489 1140.80594,986.407489" id="Oval" transform="translate(1166.805937, 1038.407489) rotate(-155.000000) translate(-1166.805937, -1038.407489) "></path>
                    <ellipse id="Oval" cx="81.5" cy="199.5" rx="49" ry="48.5"></ellipse>
                    <circle id="Oval" cx="1169.5" cy="101.5" r="60.5"></circle>
                    <ellipse id="Oval" cx="714.5" cy="1230.5" rx="44" ry="43.5"></ellipse>
                    <ellipse id="Oval" cx="628.5" cy="829.5" rx="42" ry="41.5"></ellipse>
                    <ellipse id="Oval" cx="1048.5" cy="986.5" rx="42" ry="41.5"></ellipse>
                    <ellipse id="Oval" cx="189.5" cy="1277.5" rx="28" ry="27.5"></ellipse>
                    <rect id="Rectangle" transform="translate(470.000000, 548.000000) rotate(55.000000) translate(-470.000000, -548.000000) " x="417" y="495" width="106" height="106"></rect>
                    <rect id="Rectangle" transform="translate(880.000000, 756.000000) rotate(19.000000) translate(-880.000000, -756.000000) " x="827" y="703" width="106" height="106"></rect>
                    <rect id="Rectangle" transform="translate(840.000000, 375.000000) rotate(40.000000) translate(-840.000000, -375.000000) " x="808" y="343" width="64" height="64"></rect>
                    <rect id="Rectangle" transform="translate(914.000000, 1104.000000) rotate(47.000000) translate(-914.000000, -1104.000000) " x="872" y="1062" width="84" height="84"></rect>
                    <rect id="Rectangle" transform="translate(265.000000, 106.000000) rotate(55.000000) translate(-265.000000, -106.000000) " x="189" y="30" width="152" height="152"></rect>
                    <rect id="Rectangle" transform="translate(793.000000, 142.000000) rotate(23.000000) translate(-793.000000, -142.000000) " x="740" y="89" width="106" height="106"></rect>
                    <polygon id="Triangle" transform="translate(830.000000, 554.500000) rotate(-40.000000) translate(-830.000000, -554.500000) " points="830 512 877 597 783 597"></polygon>
                    <polygon id="Triangle" transform="translate(1062.000000, 682.500000) rotate(-10.000000) translate(-1062.000000, -682.500000) " points="1062 640 1109 725 1015 725"></polygon>
                    <polygon id="Triangle" points="1191 1135 1238 1220 1144 1220"></polygon>
                    <polygon id="Triangle" points="1191 533 1223 590 1159 590"></polygon>
                    <polygon id="Triangle" transform="translate(1238.000000, 363.500000) rotate(30.000000) translate(-1238.000000, -363.500000) " points="1238 335 1270 392 1206 392"></polygon>
                    <polygon id="Triangle" transform="translate(583.000000, 109.000000) rotate(174.000000) translate(-583.000000, -109.000000) " points="583 48 650 170 516 170"></polygon>
                    <polygon id="Triangle" transform="translate(64.000000, 691.000000) rotate(-94.000000) translate(-64.000000, -691.000000) " points="64 636 125 746 3 746"></polygon>
                    <polygon id="Triangle" transform="translate(457.000000, 1061.500000) rotate(27.000000) translate(-457.000000, -1061.500000) " points="457 1000.5 524 1122.5 390 1122.5"></polygon>
                    <g id="Group-5" transform="translate(608.500000, 665.500000) rotate(-29.000000) translate(-608.500000, -665.500000) translate(565.000000, 622.000000)">
                        <line x1="0.5" y1="43.5" x2="86.5" y2="43.5" id="Line"></line>
                        <line x1="0.5" y1="43.5" x2="86.5" y2="43.5" id="Line" transform="translate(43.500000, 43.500000) rotate(90.000000) translate(-43.500000, -43.500000) "></line>
                    </g>
                    <g id="Group-4" transform="translate(689.500000, 492.500000) rotate(-50.000000) translate(-689.500000, -492.500000) translate(646.000000, 449.000000)">
                        <line x1="0.5" y1="43.5" x2="86.5" y2="43.5" id="Line"></line>
                        <line x1="0.5" y1="43.5" x2="86.5" y2="43.5" id="Line" transform="translate(43.500000, 43.500000) rotate(90.000000) translate(-43.500000, -43.500000) "></line>
                    </g>
                    <g id="Group-3" transform="translate(1328.500000, 841.500000) rotate(-29.000000) translate(-1328.500000, -841.500000) translate(1285.000000, 798.000000)">
                        <line x1="0.5" y1="43.5" x2="86.5" y2="43.5" id="Line"></line>
                        <line x1="0.5" y1="43.5" x2="86.5" y2="43.5" id="Line" transform="translate(43.500000, 43.500000) rotate(90.000000) translate(-43.500000, -43.500000) "></line>
                    </g>
                    <g id="Group-6" transform="translate(242.500000, 1138.500000) rotate(40.000000) translate(-242.500000, -1138.500000) translate(199.000000, 1095.000000)">
                        <line x1="0.5" y1="43.5" x2="86.5" y2="43.5" id="Line"></line>
                        <line x1="0.5" y1="43.5" x2="86.5" y2="43.5" id="Line" transform="translate(43.500000, 43.500000) rotate(90.000000) translate(-43.500000, -43.500000) "></line>
                    </g>
                    <line x1="478.5" y1="1277.5" x2="564.5" y2="1277.5" id="Line"></line>
                    <line x1="478.5" y1="1277.5" x2="564.5" y2="1277.5" id="Line" transform="translate(521.500000, 1277.500000) rotate(90.000000) translate(-521.500000, -1277.500000) "></line>
                    <polyline id="Path-2" transform="translate(304.551758, 689.110352) rotate(-8.000000) translate(-304.551758, -689.110352) " points="204 709.220703 244.220703 669 284.441406 709.220703 324.662109 669 364.882812 709.220703 405.103516 669"></polyline>
                    <polyline id="Path-2" transform="translate(953.646505, 1265.889764) rotate(27.000000) translate(-953.646505, -1265.889764) " points="861.146505 1284.38976 898.146505 1247.38976 935.146505 1284.38976 972.146505 1247.38976 1009.1465 1284.38976 1046.1465 1247.38976"></polyline>
                    <polyline id="Path-2" points="943 522.220703 983.220703 482 1023.44141 522.220703 1063.66211 482 1103.88281 522.220703 1144.10352 482"></polyline>
                    <polyline id="Path-2" transform="translate(482.551758, 336.110352) rotate(-35.000000) translate(-482.551758, -336.110352) " points="382 356.220703 422.220703 316 462.441406 356.220703 502.662109 316 542.882812 356.220703 583.103516 316"></polyline>
                    <polyline id="Path-2" transform="translate(141.772461, 457.110352) rotate(-14.000000) translate(-141.772461, -457.110352) " points="1 477.220703 41.2207031 437 81.4414063 477.220703 121.662109 437 161.882813 477.220703 202.103516 437 242.324219 477.220703 282.544922 437"></polyline>
                    <polyline id="Path-2" transform="translate(611.500000, 1025.500000) rotate(58.000000) translate(-611.500000, -1025.500000) " points="510 1040 539 1011 568 1040 597 1011 626 1040 655 1011 684 1040 713 1011"></polyline>
                    <polyline id="Path-2" points="947 332.220703 987.220703 292 1027.44141 332.220703 1067.66211 292 1107.88281 332.220703 1148.10352 292 1188.32422 332.220703 1228.54492 292"></polyline>
                    <polyline id="Path-2" transform="translate(1343.000000, 1062.000000) rotate(-18.000000) translate(-1343.000000, -1062.000000) " points="1238 1077 1268 1047 1298 1077 1328 1047 1358 1077 1388 1047 1418 1077 1448 1047"></polyline>
                </g>
                <g id="Group" transform="translate(478.000000, 1234.000000)"></g>
                <line x1="334.75" y1="474.185391" x2="295.773438" y2="548" id="Path-3" stroke="#F4B5B5" stroke-width="9" stroke-linecap="round" stroke-linejoin="round"></line>
                <line x1="472.976562" y1="126" x2="434" y2="199.814609" id="Path-3" stroke="#F4B5B5" stroke-width="9" stroke-linecap="round" stroke-linejoin="round"></line>
                <line x1="1286.97656" y1="151" x2="1248" y2="224.814609" id="Path-3" stroke="#F4B5B5" stroke-width="9" stroke-linecap="round" stroke-linejoin="round"></line>
                <line x1="245.023438" y1="795.027344" x2="191.185391" y2="860.492188" id="Path-4" stroke="#F4B5B5" stroke-width="9" stroke-linecap="round" stroke-linejoin="round"></line>
                <line x1="422.101562" y1="804.066406" x2="445.789062" y2="890" id="Path-5" stroke="#F4B5B5" stroke-width="9" stroke-linecap="round" stroke-linejoin="round"></line>
                <line x1="396.185391" y1="945.214844" x2="344.84375" y2="1010.11035" id="Path-6" stroke="#F4B5B5" stroke-width="9" stroke-linecap="round" stroke-linejoin="round"></line>
                <line x1="732.5" y1="1126.91406" x2="806.185391" y2="1155.14844" id="Path-7" stroke="#F4B5B5" stroke-width="9" stroke-linecap="round" stroke-linejoin="round"></line>
                <line x1="358.777344" y1="1191.22656" x2="370.51457" y2="1277.5" id="Path-8" stroke="#F4B5B5" stroke-width="9" stroke-linecap="round" stroke-linejoin="round"></line>
                <line x1="99.9140625" y1="1249.72266" x2="28.3046875" y2="1312.70703" id="Path-9" stroke="#F4B5B5" stroke-width="9" stroke-linecap="round" stroke-linejoin="round"></line>
                <line x1="1212" y1="689.110352" x2="1285" y2="756" id="Path-10" stroke="#F4B5B5" stroke-width="9" stroke-linecap="round" stroke-linejoin="round"></line>
                <path d="M204,938.648438 C191.5,938.648438 186.792969,948.626953 186.792969,958.455078 C186.792969,968.283203 193.670898,977.662598 208.072754,977.662598 C222.474609,977.662598 237.847656,971.757812 237.847656,950.072266 C237.847656,928.386719 222.208984,916 200.544922,916 C178.880859,916 156.117187,936.378906 159.208984,967.439453 C162.300781,998.5 191.185391,1013.48828 218.104414,1013.48828 C245.023437,1013.48828 278,984.781494 278,965.036133" id="Path-11" stroke="#F4B5B5" stroke-width="9" stroke-linecap="round" stroke-linejoin="round"></path>
                <path d="M1137.07435,825.648438 C1124.57435,825.648438 1119.86732,835.626953 1119.86732,845.455078 C1119.86732,855.283203 1126.74525,864.662598 1141.14711,864.662598 C1155.54896,864.662598 1170.92201,858.757812 1170.92201,837.072266 C1170.92201,815.386719 1155.28334,803 1133.61927,803 C1111.95521,803 1089.19154,823.378906 1092.28334,854.439453 C1095.37513,885.5 1124.25974,900.488281 1151.17877,900.488281 C1178.09779,900.488281 1211.07435,871.781494 1211.07435,852.036133" id="Path-11" stroke="#F4B5B5" stroke-width="9" stroke-linecap="round" stroke-linejoin="round" transform="translate(1151.537176, 851.744141) rotate(62.000000) translate(-1151.537176, -851.744141) "></path>
                <path d="M792.074352,934.648438 C779.574352,934.648438 774.867321,944.626953 774.867321,954.455078 C774.867321,964.283203 781.745251,973.662598 796.147106,973.662598 C810.548962,973.662598 825.922009,967.757812 825.922009,946.072266 C825.922009,924.386719 810.283337,912 788.619274,912 C766.955212,912 744.19154,932.378906 747.283337,963.439453 C750.375134,994.5 779.259743,1009.48828 806.178766,1009.48828 C833.09779,1009.48828 866.074352,980.781494 866.074352,961.036133" id="Path-11" stroke="#F4B5B5" stroke-width="9" stroke-linecap="round" stroke-linejoin="round"></path>
                <path d="M975.074352,99.6484375 C962.574352,99.6484375 957.867321,109.626953 957.867321,119.455078 C957.867321,129.283203 964.745251,138.662598 979.147106,138.662598 C993.548962,138.662598 1008.92201,132.757812 1008.92201,111.072266 C1008.92201,89.3867187 993.283337,77 971.619274,77 C949.955212,77 927.19154,97.3789063 930.283337,128.439453 C933.375134,159.5 962.259743,174.488281 989.178766,174.488281 C1016.09779,174.488281 1049.07435,145.781494 1049.07435,126.036133" id="Path-11" stroke="#F4B5B5" stroke-width="9" stroke-linecap="round" stroke-linejoin="round"></path>
            </g>
        </g>
    </g>
</svg>