<svg width="1499" height="973" xmlns="http://www.w3.org/2000/svg"><path fill="rgba(97, 97, 99, 1)" d="M-37 444l-32-296 34 740z"/><path fill="rgba(41, 40, 38, 1)" d="M-37 444l2 444 27-166z"/><path fill="rgba(106, 106, 104, 1)" d="M-69 148L0 2V0z"/><path fill="rgba(216, 215, 210, 1)" d="M0 970l-35-82 35 84z"/><path fill="rgba(106, 106, 104, 1)" d="M-69 148L0 8V2z"/><path fill="rgba(108, 108, 106, 1)" d="M-69 148L0 14V8z"/><path fill="rgba(105, 105, 103, 1)" d="M-69 148L0 20v-6z"/><path fill="rgba(101, 101, 99, 1)" d="M-69 148L0 26v-6z"/><path fill="rgba(100, 100, 98, 1)" d="M-69 148L0 32v-6zM-69 148L0 38v-6zM-69 148L0 44v-6z"/><path fill="rgba(99, 99, 97, 1)" d="M-69 148L0 50v-6z"/><path fill="rgba(101, 101, 99, 1)" d="M-69 148L0 56v-6z"/><path fill="rgba(99, 99, 97, 1)" d="M-69 148L0 62v-6z"/><path fill="rgba(100, 100, 98, 1)" d="M-69 148L0 68v-6z"/><path fill="rgba(102, 101, 97, 1)" d="M-69 148L0 74v-6zM-69 148L0 80v-6z"/><path fill="rgba(103, 102, 98, 1)" d="M-69 148L0 86v-6z"/><path fill="rgba(104, 105, 100, 1)" d="M-69 148l69-22V86z"/><path fill="rgba(103, 103, 101, 1)" d="M-69 148l69-16v-6z"/><path fill="rgba(102, 102, 100, 1)" d="M-69 148l69-10v-6z"/><path fill="rgba(101, 101, 99, 1)" d="M-69 148l69-4v-6zM-69 148l69 2v-6z"/><path fill="rgba(100, 100, 98, 1)" d="M-69 148l69 8v-6z"/><path fill="rgba(99, 99, 97, 1)" d="M-69 148l69 14v-6z"/><path fill="rgba(98, 98, 96, 1)" d="M-69 148l69 20v-6z"/><path fill="rgba(95, 95, 93, 1)" d="M-69 148l69 26v-6z"/><path fill="rgba(93, 93, 91, 1)" d="M-69 148l69 32v-6z"/><path fill="rgba(92, 92, 90, 1)" d="M-69 148l69 38v-6z"/><path fill="rgba(92, 92, 90, 1)" d="M-69 148l69 44v-6z"/><path fill="rgba(92, 92, 92, 1)" d="M-69 148l69 50v-6z"/><path fill="rgba(92, 92, 92, 1)" d="M-69 148l69 56v-6z"/><path fill="rgba(94, 94, 94, 1)" d="M-69 148l69 62v-6z"/><path fill="rgba(98, 98, 98, 1)" d="M-69 148l69 68v-6z"/><path fill="rgba(96, 96, 96, 1)" d="M-69 148l69 74v-6z"/><path fill="rgba(95, 95, 95, 1)" d="M-69 148l69 80v-6z"/><path fill="rgba(97, 97, 97, 1)" d="M-69 148l69 86v-6z"/><path fill="rgba(98, 99, 101, 1)" d="M-69 148l69 92v-6z"/><path fill="rgba(98, 101, 106, 1)" d="M-69 148l69 98v-6z"/><path fill="rgba(98, 101, 106, 1)" d="M-69 148L0 252v-6z"/><path fill="rgba(94, 97, 102, 1)" d="M-69 148L0 258v-6z"/><path fill="rgba(88, 92, 95, 1)" d="M-69 148L0 264v-6z"/><path fill="rgba(90, 92, 91, 1)" d="M-69 148L0 270v-6z"/><path fill="rgba(89, 91, 90, 1)" d="M-69 148L0 276v-6z"/><path fill="rgba(84, 86, 85, 1)" d="M-69 148L0 282v-6z"/><path fill="rgba(80, 82, 81, 1)" d="M-69 148L0 288v-6z"/><path fill="rgba(74, 75, 77, 1)" d="M-69 148L0 294v-6z"/><path fill="rgba(70, 71, 73, 1)" d="M-69 148L0 300v-6z"/><path fill="rgba(65, 66, 68, 1)" d="M-69 148L0 306v-6z"/><path fill="rgba(60, 61, 63, 1)" d="M-69 148L0 312v-6z"/><path fill="rgba(55, 56, 58, 1)" d="M-69 148L0 318v-6z"/><path fill="rgba(75, 66, 51, 1)" d="M-69 148l32 296L0 318z"/><path fill="rgba(130, 132, 127, 1)" d="M-37 444L0 324v-6z"/><path fill="rgba(160, 160, 148, 1)" d="M-37 444L0 330v-6z"/><path fill="rgba(193, 185, 172, 1)" d="M-37 444L0 336v-6z"/><path fill="rgba(212, 204, 191, 1)" d="M-37 444L0 342v-6z"/><path fill="rgba(221, 214, 196, 1)" d="M-37 444l37-78v-24z"/><path fill="rgba(183, 170, 153, 1)" d="M-37 444l37-72v-6z"/><path fill="rgba(144, 130, 117, 1)" d="M-37 444l37-66v-6z"/><path fill="rgba(104, 91, 82, 1)" d="M-37 444l37-60v-6z"/><path fill="rgba(63, 50, 44, 1)" d="M-37 444l37-54v-6z"/><path fill="rgba(37, 27, 25, 1)" d="M-37 444l37-48v-6z"/><path fill="rgba(26, 25, 21, 1)" d="M-37 444l37-42v-6z"/><path fill="rgba(23, 25, 24, 1)" d="M-37 444l30-18 7-24z"/><path fill="rgba(33, 28, 25, 1)" d="M-7 426l7-18v-6z"/><path fill="rgba(25, 26, 21, 1)" d="M-7 426l7-12v-6z"/><path fill="rgba(94, 94, 94, 1)" d="M-37 444l37 64v-6z"/><path fill="rgba(99, 99, 99, 1)" d="M-37 444l37 70v-6z"/><path fill="rgba(97, 97, 99, 1)" d="M-37 444l37 76v-6z"/><path fill="rgba(96, 94, 95, 1)" d="M-37 444l37 82v-6z"/><path fill="rgba(47, 49, 44, 1)" d="M-37 444L0 564v-38z"/><path fill="rgba(32, 31, 27, 1)" d="M-37 444L0 570v-6z"/><path fill="rgba(34, 33, 29, 1)" d="M-37 444L0 576v-6z"/><path fill="rgba(36, 35, 33, 1)" d="M-37 444L0 582v-6z"/><path fill="rgba(44, 43, 41, 1)" d="M-37 444L0 588v-6z"/><path fill="rgba(88, 87, 82, 1)" d="M-37 444L0 594v-6z"/><path fill="rgba(124, 121, 112, 1)" d="M-37 444L0 600v-6z"/><path fill="rgba(131, 128, 119, 1)" d="M-37 444L0 606v-6z"/><path fill="rgba(129, 126, 117, 1)" d="M-37 444L0 612v-6z"/><path fill="rgba(115, 112, 103, 1)" d="M-37 444L0 618v-6z"/><path fill="rgba(98, 103, 97, 1)" d="M-37 444L0 624v-6z"/><path fill="rgba(122, 111, 91, 1)" d="M-37 444l29 278 8-98z"/><path fill="rgba(42, 38, 37, 1)" d="M-8 722l8-70v-28z"/><path fill="rgba(38, 37, 35, 1)" d="M-8 722l8-64v-6zM-8 722l8-58v-6z"/><path fill="rgba(44, 43, 41, 1)" d="M-8 722l8-52v-6z"/><path fill="rgba(49, 45, 42, 1)" d="M-8 722l8-14v-38z"/><path fill="rgba(54, 49, 45, 1)" d="M-8 722l8-8v-6z"/><path fill="rgba(67, 62, 58, 1)" d="M-8 722l8-2v-6z"/><path fill="rgba(90, 81, 72, 1)" d="M-8 722l8 4v-6z"/><path fill="rgba(113, 103, 91, 1)" d="M-8 722l8 10v-6z"/><path fill="rgba(125, 112, 96, 1)" d="M-8 722l8 16v-6z"/><path fill="rgba(131, 114, 98, 1)" d="M-8 722l8 22v-6z"/><path fill="rgba(129, 118, 98, 1)" d="M-8 722l8 28v-6z"/><path fill="rgba(131, 120, 100, 1)" d="M-8 722l8 34v-6z"/><path fill="rgba(132, 121, 101, 1)" d="M-8 722l8 40v-6z"/><path fill="rgba(136, 125, 105, 1)" d="M-8 722l8 46v-6z"/><path fill="rgba(146, 134, 120, 1)" d="M-8 722l-27 166L0 768z"/><path fill="rgba(107, 98, 91, 1)" d="M-35 888l35 40v-4z"/><path fill="rgba(103, 94, 87, 1)" d="M-35 888l35 46v-6z"/><path fill="rgba(85, 76, 69, 1)" d="M-35 888l35 52v-6z"/><path fill="rgba(81, 72, 65, 1)" d="M-35 888l35 58v-6z"/><path fill="rgba(81, 70, 64, 1)" d="M-35 888l35 64v-6z"/><path fill="rgba(92, 83, 76, 1)" d="M-35 888l35 70v-6z"/><path fill="rgba(144, 137, 131, 1)" d="M-35 888l35 76v-6z"/><path fill="rgba(188, 185, 180, 1)" d="M-35 888l35 82v-6z"/><path fill="rgba(96, 89, 73, 1)" d="M0 738v6l11-4z"/><path fill="rgba(118, 106, 90, 1)" d="M0 582v6l13 4z"/><path fill="rgba(125, 113, 97, 1)" d="M0 588v6l13-2z"/><path fill="rgba(124, 116, 97, 1)" d="M0 594v6l13-8z"/><path fill="rgba(127, 114, 95, 1)" d="M0 600v6l13-14z"/><path fill="rgba(96, 84, 70, 1)" d="M0 726v6l11 8z"/><path fill="rgba(95, 86, 71, 1)" d="M0 732v6l11 2z"/><path fill="rgba(97, 90, 74, 1)" d="M0 744v6l11-10z"/><path fill="rgba(104, 105, 97, 1)" d="M0 132v6l25-8z"/><path fill="rgba(104, 105, 97, 1)" d="M0 138v6l25-14z"/><path fill="rgba(104, 105, 97, 1)" d="M0 144v6l25-20z"/><path fill="rgba(103, 103, 101, 1)" d="M0 150v6l25-26z"/><path fill="rgba(103, 104, 99, 1)" d="M0 86v40l25 4z"/><path fill="rgba(104, 105, 97, 1)" d="M0 126v6l25-2z"/><path fill="rgba(95, 87, 76, 1)" d="M0 570v6l13 16z"/><path fill="rgba(107, 97, 85, 1)" d="M0 576v6l13 10z"/><path fill="rgba(120, 108, 92, 1)" d="M0 606v6l13-20z"/><path fill="rgba(108, 100, 87, 1)" d="M0 612v6l13-26z"/><path fill="rgba(90, 80, 70, 1)" d="M0 720v6l11 14z"/><path fill="rgba(98, 91, 75, 1)" d="M0 750v6l11-16z"/><path fill="rgba(102, 96, 82, 1)" d="M0 756v6l11-22z"/><path fill="rgba(55, 57, 56, 1)" d="M-7 426l-30 18 37 58z"/><path fill="rgba(113, 112, 108, 1)" d="M0 14v6l54 4z"/><path fill="rgba(113, 112, 108, 1)" d="M0 20v6l54-2z"/><path fill="rgba(113, 112, 108, 1)" d="M0 26v6l54-8z"/><path fill="rgba(112, 111, 107, 1)" d="M0 32v6l54-14z"/><path fill="rgba(42, 46, 49, 1)" d="M0 264v6l57 26zM0 270v6l57 20zM0 276v6l57 14z"/><path fill="rgba(43, 47, 48, 1)" d="M0 282v6l57 8z"/><path fill="rgba(53, 53, 53, 1)" d="M0 288v6l57 2z"/><path fill="rgba(70, 65, 59, 1)" d="M0 294v6l57-4z"/><path fill="rgba(86, 76, 64, 1)" d="M0 300v6l57-10z"/><path fill="rgba(97, 82, 63, 1)" d="M0 306v6l57-16z"/><path fill="rgba(105, 89, 66, 1)" d="M0 312v6l57-22z"/><path fill="rgba(115, 95, 68, 1)" d="M0 318v6l57-28z"/><path fill="rgba(116, 95, 64, 1)" d="M0 324v6l57-34z"/><path fill="rgba(113, 112, 110, 1)" d="M0 0v2l54 22z"/><path fill="rgba(113, 112, 110, 1)" d="M0 2v6l54 16zM0 8v6l54 10z"/><path fill="rgba(109, 109, 107, 1)" d="M0 38v6l54-20z"/><path fill="rgba(108, 108, 106, 1)" d="M0 44v6l54-26z"/><path fill="rgba(106, 106, 104, 1)" d="M0 50v6l54-32z"/><path fill="rgba(101, 101, 99, 1)" d="M0 156v6l25-32z"/><path fill="rgba(100, 100, 98, 1)" d="M0 162v6l25-38z"/><path fill="rgba(85, 79, 67, 1)" d="M0 564v6l13 22z"/><path fill="rgba(77, 73, 62, 1)" d="M0 714v6l11 20z"/><path fill="rgba(104, 98, 84, 1)" d="M0 762v6l11-28z"/><path fill="rgba(116, 116, 114, 1)" d="M74-17L54 24 74 0z"/><path fill="rgba(115, 115, 113, 1)" d="M0 0l54 24 20-41z"/><path fill="rgba(44, 48, 51, 1)" d="M0 258v6l57 32z"/><path fill="rgba(118, 93, 63, 1)" d="M0 330v6l57-40z"/><path fill="rgba(105, 105, 103, 1)" d="M0 56v6l54-38z"/><path fill="rgba(102, 102, 100, 1)" d="M0 62v6l54-44z"/><path fill="rgba(123, 113, 101, 1)" d="M0 618v6l13-32z"/><path fill="rgba(51, 52, 54, 1)" d="M0 252v6l57 38z"/><path fill="rgba(62, 57, 51, 1)" d="M0 708v6l11 26z"/><path fill="rgba(31, 30, 28, 1)" d="M11 740L0 768l88-4z"/><path fill="rgba(96, 97, 99, 1)" d="M0 366v6l86-52z"/><path fill="rgba(93, 92, 90, 1)" d="M0 342v24l86-46z"/><path fill="rgba(26, 35, 34, 1)" d="M57 296L0 342l86-22z"/><path fill="rgba(61, 62, 64, 1)" d="M0 240v6l57 50z"/><path fill="rgba(55, 56, 58, 1)" d="M0 246v6l57 44z"/><path fill="rgba(116, 90, 63, 1)" d="M0 336v6l57-46z"/><path fill="rgba(101, 101, 99, 1)" d="M0 68v6l54-50z"/><path fill="rgba(100, 100, 98, 1)" d="M0 74v6l54-56z"/><path fill="rgba(98, 98, 96, 1)" d="M0 168v6l25-44z"/><path fill="rgba(96, 96, 94, 1)" d="M0 174v6l25-50z"/><path fill="rgba(102, 101, 97, 1)" d="M0 80v6l25 44z"/><path fill="rgba(39, 39, 39, 1)" d="M-7 426l7 76 116-59z"/><path fill="rgba(134, 133, 128, 1)" d="M0 414l-7 12 123 17z"/><path fill="rgba(64, 65, 67, 1)" d="M0 234v6l57 56z"/><path fill="rgba(100, 100, 98, 1)" d="M0 80l25 50L54 24z"/><path fill="rgba(33, 32, 30, 1)" d="M88 764l-88 4 119 102z"/><path fill="rgba(68, 59, 54, 1)" d="M-35 888l35 36 119-54z"/><path fill="rgba(32, 31, 29, 1)" d="M0 768l-35 120 154-18z"/><path fill="rgba(62, 63, 68, 1)" d="M57 296l29 24 32-42z"/><path fill="rgba(235, 233, 220, 1)" d="M0 396v6l116 41z"/><path fill="rgba(218, 219, 205, 1)" d="M0 402v6l116 35z"/><path fill="rgba(200, 200, 188, 1)" d="M0 408v6l116 29z"/><path fill="rgba(29, 28, 26, 1)" d="M0 708l11 32 104-1z"/><path fill="rgba(31, 30, 28, 1)" d="M11 740l77 24 27-25z"/><path fill="rgba(102, 106, 109, 1)" d="M0 372v6l86-58z"/><path fill="rgba(125, 126, 128, 1)" d="M0 378v6l86-64z"/><path fill="rgba(67, 68, 70, 1)" d="M0 228v6l57 62z"/><path fill="rgba(29, 28, 26, 1)" d="M0 670v38l115 31z"/><path fill="rgba(192, 191, 186, 1)" d="M0 502v6l137-40z"/><path fill="rgba(252, 252, 250, 1)" d="M116 443L0 502l137-34z"/><path fill="rgba(247, 240, 212, 1)" d="M13 592l122 24v-42z"/><path fill="rgba(160, 157, 150, 1)" d="M0 526v38l135 10z"/><path fill="rgba(129, 128, 123, 1)" d="M0 564l13 28 122-18z"/><path fill="rgba(93, 92, 88, 1)" d="M0 652v6l135-42z"/><path fill="rgba(210, 210, 200, 1)" d="M0 624v28l135-36z"/><path fill="rgba(225, 223, 211, 1)" d="M13 592L0 624l135-8z"/><path fill="rgba(73, 64, 57, 1)" d="M0 924v4l119-58z"/><path fill="rgba(42, 48, 48, 1)" d="M0 216v6l118 56z"/><path fill="rgba(41, 47, 47, 1)" d="M0 222v6l118 50z"/><path fill="rgba(48, 53, 57, 1)" d="M0 228l57 68 61-18z"/><path fill="rgba(241, 239, 224, 1)" d="M0 390v6l116 47z"/><path fill="rgba(254, 254, 242, 1)" d="M86 320L0 390l116 53z"/><path fill="rgba(165, 162, 153, 1)" d="M0 384v6l86-70z"/><path fill="rgba(93, 93, 91, 1)" d="M0 180v6l25-56z"/><path fill="rgba(63, 64, 66, 1)" d="M0 192v6l149-51z"/><path fill="rgba(73, 75, 74, 1)" d="M0 198l118 80 31-131z"/><path fill="rgba(88, 90, 89, 1)" d="M54 24L25 130l124 17z"/><path fill="rgba(61, 65, 64, 1)" d="M0 186v6l149-45z"/><path fill="rgba(91, 91, 89, 1)" d="M25 130L0 186l149-39z"/><path fill="rgba(171, 168, 159, 1)" d="M0 514v6l137-52z"/><path fill="rgba(252, 250, 237, 1)" d="M0 520l135 54 2-106z"/><path fill="rgba(191, 188, 179, 1)" d="M0 508v6l137-46z"/><path fill="rgba(123, 122, 117, 1)" d="M0 520v6l135 48z"/><path fill="rgba(50, 49, 45, 1)" d="M0 658v6l135-48z"/><path fill="rgba(33, 32, 30, 1)" d="M0 664v6l135-54z"/><path fill="rgba(27, 27, 25, 1)" d="M0 670l115 69 20-123z"/><path fill="rgba(73, 64, 57, 1)" d="M0 928v6l119-64z"/><path fill="rgba(67, 62, 56, 1)" d="M0 934v6l119-70z"/><path fill="rgba(65, 60, 54, 1)" d="M0 940v6l119-76z"/><path fill="rgba(65, 60, 54, 1)" d="M0 946v6l119-82z"/><path fill="rgba(43, 49, 49, 1)" d="M0 198v6l118 74z"/><path fill="rgba(41, 47, 47, 1)" d="M0 204v6l118 68z"/><path fill="rgba(42, 48, 48, 1)" d="M0 210v6l118 62z"/><path fill="rgba(65, 60, 54, 1)" d="M0 952v6l119-88z"/><path fill="rgba(88, 93, 99, 1)" d="M149 147l-31 131 60-108z"/><path fill="rgba(68, 63, 57, 1)" d="M0 958v6l119-94z"/><path fill="rgba(126, 126, 124, 1)" d="M74-17V0h124z"/><path fill="rgba(70, 74, 77, 1)" d="M178 170l-60 108 63-106z"/><path fill="rgba(145, 138, 130, 1)" d="M0 970v2l119-102z"/><path fill="rgba(104, 97, 89, 1)" d="M0 964v6l119-100z"/><path fill="rgba(254, 254, 252, 1)" d="M116 443l21 25 73-2z"/><path fill="rgba(175, 188, 194, 1)" d="M74-17L198 0v-123z"/><path fill="rgba(106, 106, 104, 1)" d="M0 0l74-17 124-106z"/><path fill="rgba(127, 132, 135, 1)" d="M74 0l75 147L198 0z"/><path fill="rgba(90, 90, 88, 1)" d="M74 0L54 24l95 123z"/><path fill="rgba(33, 32, 30, 1)" d="M115 739l-27 25 31 106z"/><path fill="rgba(255, 255, 251, 1)" d="M137 468l-2 106 75-108z"/><path fill="rgba(35, 30, 27, 1)" d="M212 910l27 9 4-32z"/><path fill="rgba(27, 27, 27, 1)" d="M119 870l93 40 31-23z"/><path fill="rgba(247, 246, 226, 1)" d="M135 574v42l105 7z"/><path fill="rgba(26, 24, 25, 1)" d="M119 870L0 972l212-62z"/><path fill="rgba(254, 255, 250, 1)" d="M135 574l105 49 19-32z"/><path fill="rgba(103, 94, 89, 1)" d="M181 172l-63 106 124 17z"/><path fill="rgba(98, 69, 61, 1)" d="M259 591l-19 32 21-9z"/><path fill="rgba(30, 30, 30, 1)" d="M115 739l4 131 140-108z"/><path fill="rgba(193, 194, 189, 1)" d="M86 320l30 123 126-148z"/><path fill="rgba(67, 68, 70, 1)" d="M118 278l-32 42 156-25z"/><path fill="rgba(32, 31, 29, 1)" d="M135 616l-20 123 125-116z"/><path fill="rgba(196, 196, 194, 1)" d="M242 295l-32 171 63-139z"/><path fill="rgba(254, 255, 249, 1)" d="M210 466l-75 108 124 17z"/><path fill="rgba(31, 31, 31, 1)" d="M240 623L115 739l144 23z"/><path fill="rgba(26, 26, 24, 1)" d="M119 870l124 17 16-125z"/><path fill="rgba(158, 157, 152, 1)" d="M116 443l94 23 32-171z"/><path fill="rgba(74, 75, 77, 1)" d="M302 267l-29 60 32-9z"/><path fill="rgba(91, 92, 96, 1)" d="M242 295l31 32 29-60z"/><path fill="rgba(88, 85, 70, 1)" d="M181 172l61 123 60-28z"/><path fill="rgba(131, 132, 127, 1)" d="M149 147l29 23L198 0z"/><path fill="rgba(75, 76, 78, 1)" d="M181 172l121 95 20-88z"/><path fill="rgba(147, 147, 145, 1)" d="M178 170l3 2L198 0z"/><path fill="rgba(106, 77, 61, 1)" d="M239 919l-27-9 124 97z"/><path fill="rgba(215, 141, 104, 1)" d="M259 591l2 23 73-51z"/><path fill="rgba(77, 64, 56, 1)" d="M210 466l49 125 75-28z"/><path fill="rgba(148, 153, 157, 1)" d="M198 0l-17 172L322 22z"/><path fill="rgba(114, 114, 112, 1)" d="M181 172l141 7V22z"/><path fill="rgba(96, 87, 78, 1)" d="M240 623l19 139 2-148z"/><path fill="rgba(178, 152, 129, 1)" d="M212 910L0 972l336 35z"/><path fill="rgba(227, 197, 171, 1)" d="M336 1007L0 972l367 95z"/><path fill="rgba(245, 228, 198, 1)" d="M210 466l124 97 32-88z"/><path fill="rgba(28, 28, 26, 1)" d="M259 762l-16 125 120-18z"/><path fill="rgba(161, 98, 80, 1)" d="M243 887l-4 32 124-50z"/><path fill="rgba(178, 182, 183, 1)" d="M198-123V0l124 22z"/><path fill="rgba(254, 243, 213, 1)" d="M273 327l-63 139 156 9z"/><path fill="rgba(64, 49, 42, 1)" d="M261 614l-2 148 126-51z"/><path fill="rgba(30, 30, 28, 1)" d="M259 762l124 9 2-60z"/><path fill="rgba(31, 31, 29, 1)" d="M259 762l104 107 20-98z"/><path fill="rgba(196, 131, 101, 1)" d="M334 563l-73 51 103-41z"/><path fill="rgba(223, 149, 148, 1)" d="M239 919l97 88 27-138z"/><path fill="rgba(76, 75, 73, 1)" d="M302 267l3 51 92-41z"/><path fill="rgba(61, 58, 53, 1)" d="M322 179l-20 88 95 10z"/><path fill="rgba(168, 110, 90, 1)" d="M364 573l-103 41 124 97z"/><path fill="rgba(25, 25, 25, 1)" d="M363 869l20-10v-88z"/><path fill="rgba(112, 107, 103, 1)" d="M334 563l30 10 2-98z"/><path fill="rgba(251, 250, 245, 1)" d="M305 318l-32 9 93 148z"/><path fill="rgba(74, 69, 63, 1)" d="M322 22v157l104-77z"/><path fill="rgba(226, 215, 187, 1)" d="M305 318l61 157 63-60z"/><path fill="rgba(146, 121, 101, 1)" d="M426 102l20 27v-10z"/><path fill="rgba(79, 72, 64, 1)" d="M426 102l-104 77 124-50z"/><path fill="rgba(59, 56, 49, 1)" d="M397 277l-92 41 124 97z"/><path fill="rgba(25, 25, 25, 1)" d="M383 771v88l77-17z"/><path fill="rgba(54, 49, 45, 1)" d="M397 277l32 138 29-17z"/><path fill="rgba(69, 65, 56, 1)" d="M322 179l75 98 49-148z"/><path fill="rgba(42, 41, 39, 1)" d="M458 398l-29 17 61 10z"/><path fill="rgba(94, 94, 94, 1)" d="M336 1007l31 60 124-50z"/><path fill="rgba(47, 46, 44, 1)" d="M488 402l-30-4 32 27z"/><path fill="rgba(31, 31, 31, 1)" d="M385 711l-2 60 104-73z"/><path fill="rgba(228, 207, 186, 1)" d="M366 475l-2 98 145-27z"/><path fill="rgba(199, 198, 196, 1)" d="M507 694l-20 4 20 23z"/><path fill="rgba(34, 36, 35, 1)" d="M487 698l-104 73 124-50z"/><path fill="rgba(119, 121, 120, 1)" d="M383 859l-47 148 155 10z"/><path fill="rgba(148, 147, 152, 1)" d="M364 573l21 138 102-13z"/><path fill="rgba(29, 25, 26, 1)" d="M363 869l-27 138 47-148z"/><path fill="rgba(188, 160, 123, 1)" d="M446 119v10l75-23z"/><path fill="rgba(171, 145, 118, 1)" d="M426 102l20 17 75-13z"/><path fill="rgba(70, 66, 63, 1)" d="M364 573l123 125 22-152z"/><path fill="rgba(214, 197, 177, 1)" d="M429 415l-63 60 143 71z"/><path fill="rgba(74, 75, 70, 1)" d="M490 425l-61-10 80 131z"/><path fill="rgba(29, 29, 29, 1)" d="M383 771l77 71 47-121z"/><path fill="rgba(23, 25, 24, 1)" d="M460 842l-77 17 108 158z"/><path fill="rgba(207, 177, 151, 1)" d="M426 102l95 4 29-69z"/><path fill="rgba(73, 69, 58, 1)" d="M446 129l-49 148 156-27z"/><path fill="rgba(124, 105, 91, 1)" d="M322 22l104 80 124-65z"/><path fill="rgba(73, 70, 63, 1)" d="M487 698l20-4 2-148z"/><path fill="rgba(221, 202, 170, 1)" d="M322 22l248-63v-4z"/><path fill="rgba(228, 209, 177, 1)" d="M322 22l228 15 20-78z"/><path fill="rgba(126, 104, 83, 1)" d="M397 277l61 121 95-148z"/><path fill="rgba(82, 73, 64, 1)" d="M458 398l30 4 65-152z"/><path fill="rgba(91, 81, 71, 1)" d="M553 250l-65 152 94-69z"/><path fill="rgba(82, 78, 69, 1)" d="M507 721l-47 121 124-65z"/><path fill="rgba(179, 158, 127, 1)" d="M521 106l-75 23 107 121z"/><path fill="rgba(43, 43, 41, 1)" d="M490 425l19 121 103-62z"/><path fill="rgba(94, 83, 77, 1)" d="M198-123L322 22l248-67z"/><path fill="rgba(84, 75, 66, 1)" d="M584 777l-124 65 155 4z"/><path fill="rgba(110, 93, 83, 1)" d="M553 250l29 83 32-79z"/><path fill="rgba(40, 40, 38, 1)" d="M509 546l-2 148 124-65z"/><path fill="rgba(31, 29, 30, 1)" d="M611 780l-27-3 31 69z"/><path fill="rgba(54, 54, 52, 1)" d="M612 484l-103 62 122 4z"/><path fill="rgba(51, 50, 46, 1)" d="M509 546l122 83v-79z"/><path fill="rgba(83, 79, 78, 1)" d="M460 842l31 175 124-171z"/><path fill="rgba(51, 50, 46, 1)" d="M488 402l2 23 92-92z"/><path fill="rgba(92, 84, 73, 1)" d="M521 106l32 144 92-62z"/><path fill="rgba(95, 87, 76, 1)" d="M553 250l61 4 31-66z"/><path fill="rgba(68, 72, 73, 1)" d="M612 484l19 66 2-69z"/><path fill="rgba(206, 210, 213, 1)" d="M507 694l77 83 47-148z"/><path fill="rgba(50, 49, 45, 1)" d="M582 333l-92 92 122 59z"/><path fill="rgba(67, 63, 62, 1)" d="M507 694v27l77 56z"/><path fill="rgba(72, 65, 57, 1)" d="M645 188l-31 66 60-41z"/><path fill="rgba(80, 73, 63, 1)" d="M645 188l29 25 3-28z"/><path fill="rgba(80, 75, 71, 1)" d="M582 333l30 151 21-3z"/><path fill="rgba(26, 26, 24, 1)" d="M584 777l27 3 20-151z"/><path fill="rgba(202, 184, 162, 1)" d="M570-41l-20 78 144 3z"/><path fill="rgba(208, 179, 145, 1)" d="M550 37l-29 69 124 82z"/><path fill="rgba(60, 60, 58, 1)" d="M633 481l-2 69 75-41z"/><path fill="rgba(175, 168, 158, 1)" d="M615 846l-124 171 217-64z"/><path fill="rgba(158, 139, 124, 1)" d="M570-45v4l124-69z"/><path fill="rgba(93, 84, 77, 1)" d="M550 37l95 151 49-148z"/><path fill="rgba(101, 92, 83, 1)" d="M645 188l32-3 17-145z"/><path fill="rgba(86, 83, 78, 1)" d="M615 846l93 107 31-25z"/><path fill="rgba(141, 138, 131, 1)" d="M708 953l27-18 4-7z"/><path fill="rgba(52, 51, 47, 1)" d="M582 333l51 148 105-145z"/><path fill="rgba(67, 60, 52, 1)" d="M614 254l-32 79 156 3z"/><path fill="rgba(171, 148, 134, 1)" d="M570-41l124 81v-150z"/><path fill="rgba(53, 48, 44, 1)" d="M611 780l4 66 140-41z"/><path fill="rgba(116, 100, 84, 1)" d="M674 213l-60 41 124 82z"/><path fill="rgba(34, 34, 32, 1)" d="M631 550v79l105 10z"/><path fill="rgba(80, 81, 85, 1)" d="M755 632l-19 7 21 18z"/><path fill="rgba(71, 67, 64, 1)" d="M706 509l-75 41 105 89z"/><path fill="rgba(209, 212, 217, 1)" d="M736 639L611 780l146-123z"/><path fill="rgba(110, 114, 115, 1)" d="M611 780l144 25 2-148z"/><path fill="rgba(114, 110, 98, 1)" d="M706 509l30 130 19-7z"/><path fill="rgba(131, 129, 130, 1)" d="M615 846l124 82 16-123z"/><path fill="rgba(38, 38, 38, 1)" d="M633 481l73 28 32-173z"/><path fill="rgba(197, 204, 212, 1)" d="M631 629l-20 151 125-141z"/><path fill="rgba(131, 108, 90, 1)" d="M674 213l64 123 60-90z"/><path fill="rgba(118, 102, 87, 1)" d="M677 185l-3 28 124 33z"/><path fill="rgba(97, 87, 77, 1)" d="M677 185l121 61 20-51z"/><path fill="rgba(75, 72, 63, 1)" d="M738 336l31 7 29-97z"/><path fill="rgba(44, 43, 39, 1)" d="M738 336l-32 173 63-166z"/><path fill="rgba(51, 50, 46, 1)" d="M769 343l-63 166 95-148z"/><path fill="rgba(239, 239, 237, 1)" d="M739 928l-4 7 97 51z"/><path fill="rgba(254, 254, 252, 1)" d="M735 935l-27 18 124 33z"/><path fill="rgba(198, 192, 194, 1)" d="M706 509l49 123 75-90z"/><path fill="rgba(131, 115, 102, 1)" d="M694 40l-17 145L818 65z"/><path fill="rgba(125, 112, 96, 1)" d="M677 185l141 10V65z"/><path fill="rgba(221, 202, 170, 1)" d="M198-123l372 78 124-65z"/><path fill="rgba(170, 61, 64, 1)" d="M832 986l-124-33 155 130z"/><path fill="rgba(66, 62, 53, 1)" d="M830 542l30-14 2-37z"/><path fill="rgba(51, 50, 45, 1)" d="M801 361l-95 148 156-18z"/><path fill="rgba(133, 133, 125, 1)" d="M706 509l124 33 32-51z"/><path fill="rgba(135, 133, 136, 1)" d="M755 805l-16 123 120-104z"/><path fill="rgba(80, 76, 67, 1)" d="M798 246l-29 97 32 18z"/><path fill="rgba(166, 57, 62, 1)" d="M755 805l104 19 20-37z"/><path fill="rgba(113, 103, 93, 1)" d="M757 657l-2 148 126-115z"/><path fill="rgba(255, 255, 255, 1)" d="M708 953l-217 64 372 66z"/><path fill="rgba(188, 165, 147, 1)" d="M694-110V40l124 25z"/><path fill="rgba(159, 155, 143, 1)" d="M818 195l-20 51 95-14z"/><path fill="rgba(170, 77, 87, 1)" d="M755 805l124-18 2-97z"/><path fill="rgba(124, 125, 129, 1)" d="M755 632l2 25 124 33z"/><path fill="rgba(44, 43, 41, 1)" d="M830 542l-75 90 126 58z"/><path fill="rgba(192, 42, 53, 1)" d="M859 824l20 14v-51z"/><path fill="rgba(179, 43, 55, 1)" d="M739 928l93 58 47-148z"/><path fill="rgba(160, 36, 47, 1)" d="M859 824L739 928l140-90z"/><path fill="rgba(53, 52, 48, 1)" d="M801 361l61 130 63-97z"/><path fill="rgba(181, 116, 98, 1)" d="M798 246l3 115 92-129z"/><path fill="rgba(127, 115, 99, 1)" d="M942 84l-20-20 20 34z"/><path fill="rgba(108, 100, 89, 1)" d="M818 65v130l124-97z"/><path fill="rgba(95, 84, 78, 1)" d="M922 64l-104 1 124 33z"/><path fill="rgba(187, 45, 59, 1)" d="M879 787v51l77-34z"/><path fill="rgba(60, 57, 50, 1)" d="M893 232l-92 129 153-1z"/><path fill="rgba(55, 52, 45, 1)" d="M801 361l124 33 29-34z"/><path fill="rgba(74, 67, 59, 1)" d="M818 195l75 37 49-134z"/><path fill="rgba(168, 159, 154, 1)" d="M860 528l-30 14 51 148z"/><path fill="rgba(209, 132, 102, 1)" d="M954 360l-29 34h59z"/><path fill="rgba(220, 151, 112, 1)" d="M954 360l30 34 2-14z"/><path fill="rgba(189, 45, 54, 1)" d="M832 986l31 97 124-111z"/><path fill="rgba(191, 47, 57, 1)" d="M879 838l-47 148 155-14z"/><path fill="rgba(190, 46, 56, 1)" d="M881 690l75 114 27-114z"/><path fill="rgba(195, 45, 57, 1)" d="M881 690l-2 97 77 17z"/><path fill="rgba(80, 66, 57, 1)" d="M862 491l-2 37 145-20z"/><path fill="rgba(80, 69, 63, 1)" d="M925 394l-63 97 143 17z"/><path fill="rgba(110, 35, 40, 1)" d="M1003 656l-20 34 20-14z"/><path fill="rgba(173, 43, 51, 1)" d="M881 690h102l20-34z"/><path fill="rgba(248, 248, 250, 1)" d="M942 84v14h75z"/><path fill="rgba(153, 61, 62, 1)" d="M860 528l143 128 2-148z"/><path fill="rgba(148, 96, 75, 1)" d="M984 394h-59l80 114z"/><path fill="rgba(137, 59, 59, 1)" d="M860 528l21 162 122-34z"/><path fill="rgba(191, 45, 56, 1)" d="M956 804l-77 34 108 134z"/><path fill="rgba(203, 183, 158, 1)" d="M694-110L818 65l104-1z"/><path fill="rgba(252, 251, 247, 1)" d="M942 98l-49 134 156-20z"/><path fill="rgba(98, 76, 63, 1)" d="M1017 98h-75l107 114z"/><path fill="rgba(115, 112, 103, 1)" d="M922 64l20 20 104-20z"/><path fill="rgba(255, 253, 254, 1)" d="M942 84l75 14 29-34z"/><path fill="rgba(120, 107, 91, 1)" d="M694-110L922 64l144-147z"/><path fill="rgba(95, 87, 76, 1)" d="M922 64l144-113v-34z"/><path fill="rgba(134, 122, 106, 1)" d="M922 64h124l20-113z"/><path fill="rgba(233, 187, 163, 1)" d="M893 232l61 128 95-148z"/><path fill="rgba(254, 254, 254, 1)" d="M491 1017l-124 50 496 16z"/><path fill="rgba(98, 33, 41, 1)" d="M983 690l-27 114h124z"/><path fill="rgba(142, 102, 90, 1)" d="M954 360l32 20 92-20z"/><path fill="rgba(222, 154, 117, 1)" d="M1049 212l-95 148h124z"/><path fill="rgba(198, 132, 108, 1)" d="M986 380l-2 14 94-34z"/><path fill="rgba(218, 48, 57, 1)" d="M1003 676l-20 14 97 114z"/><path fill="rgba(180, 43, 53, 1)" d="M1080 804l-93 168 124-134z"/><path fill="rgba(174, 40, 47, 1)" d="M1107 826l-27-22 31 34z"/><path fill="rgba(195, 136, 106, 1)" d="M1049 212l29 148 32-114z"/><path fill="rgba(30, 27, 22, 1)" d="M1005 508l-2 148 105-126z"/><path fill="rgba(219, 69, 78, 1)" d="M956 804l31 168 93-168z"/><path fill="rgba(126, 40, 43, 1)" d="M1003 656v20l124-20z"/><path fill="rgba(37, 29, 27, 1)" d="M1005 508l103 22 21-22z"/><path fill="rgba(188, 127, 99, 1)" d="M984 394l21 114 73-148z"/><path fill="rgba(103, 74, 60, 1)" d="M1049 212l61 34 31-12z"/><path fill="rgba(30, 25, 22, 1)" d="M1108 530l19 12 2-34z"/><path fill="rgba(76, 53, 45, 1)" d="M1078 360l-73 148h124z"/><path fill="rgba(36, 31, 28, 1)" d="M1108 530l19 126V542z"/><path fill="rgba(236, 58, 70, 1)" d="M1108 530l-105 126h124z"/><path fill="rgba(148, 39, 44, 1)" d="M1003 676l77 128 47-148z"/><path fill="rgba(60, 49, 43, 1)" d="M1141 234l29 13 3-35z"/><path fill="rgba(45, 40, 34, 1)" d="M1141 234l-31 12 60 1z"/><path fill="rgba(141, 114, 97, 1)" d="M1046 64l-29 34 32 114z"/><path fill="rgba(94, 88, 76, 1)" d="M1066-83v34l124-34z"/><path fill="rgba(68, 54, 45, 1)" d="M1049 212l92 22 32-22z"/><path fill="rgba(183, 42, 51, 1)" d="M1111 838L987 972l217 15z"/><path fill="rgba(52, 37, 30, 1)" d="M1129 508l-2 34 75 1z"/><path fill="rgba(200, 190, 155, 1)" d="M1066-49l-20 113 144 22z"/><path fill="rgba(100, 82, 72, 1)" d="M1046 64l3 148 141-126z"/><path fill="rgba(69, 60, 53, 1)" d="M1049 212h124l17-126z"/><path fill="rgba(54, 43, 39, 1)" d="M1110 246l-32 114 92-113z"/><path fill="rgba(202, 44, 58, 1)" d="M1111 838l93 149 27-52z"/><path fill="rgba(189, 54, 61, 1)" d="M1127 542v114l75-113z"/><path fill="rgba(82, 15, 22, 1)" d="M1231 935l-27 52 31-13z"/><path fill="rgba(69, 45, 43, 1)" d="M1078 360l51 148 105-126z"/><path fill="rgba(37, 29, 27, 1)" d="M1170 247l-92 113 156 22z"/><path fill="rgba(243, 53, 63, 1)" d="M1202 543l-75 113 105-17z"/><path fill="rgba(92, 79, 71, 1)" d="M1066-49l124 135V-83z"/><path fill="rgba(216, 50, 64, 1)" d="M1080 804l27 22 20-170z"/><path fill="rgba(173, 42, 50, 1)" d="M1232 639l-105 17 124 22z"/><path fill="rgba(60, 19, 23, 1)" d="M1251 678l-124-22 126 35z"/><path fill="rgba(236, 44, 59, 1)" d="M1107 826l4 12 140 1z"/><path fill="rgba(204, 43, 58, 1)" d="M1111 838l120 97 20-96z"/><path fill="rgba(41, 36, 33, 1)" d="M1170 247l64 135 31-39z"/><path fill="rgba(148, 41, 49, 1)" d="M1127 656l-20 170 146-135z"/><path fill="rgba(137, 43, 43, 1)" d="M1107 826l144 13 2-148z"/><path fill="rgba(130, 81, 64, 1)" d="M1129 508l73 35 32-161z"/><path fill="rgba(32, 26, 26, 1)" d="M1265 343l-31 39 63 13z"/><path fill="rgba(53, 46, 40, 1)" d="M1173 212l-3 35 124-35z"/><path fill="rgba(65, 56, 47, 1)" d="M1190 86l-17 126h121z"/><path fill="rgba(43, 38, 35, 1)" d="M1170 247l95 96 29-131z"/><path fill="rgba(176, 44, 57, 1)" d="M987 972l-124 111 341-96z"/><path fill="rgba(188, 38, 49, 1)" d="M1231 935l4 39 93-22z"/><path fill="rgba(26, 25, 23, 1)" d="M1234 382l-32 161 124-35z"/><path fill="rgba(25, 24, 22, 1)" d="M1297 395l-63-13 92 126z"/><path fill="rgba(57, 52, 48, 1)" d="M1190 86l104 126 20-113z"/><path fill="rgba(74, 69, 66, 1)" d="M1294 212l20-17V99z"/><path fill="rgba(154, 48, 50, 1)" d="M1253 691l-2 148 104-60z"/><path fill="rgba(184, 45, 52, 1)" d="M1251 839l-20 96 97 17z"/><path fill="rgba(251, 59, 70, 1)" d="M1202 543l30 96 94-131z"/><path fill="rgba(143, 53, 55, 1)" d="M1356 483l-30 25 32-17z"/><path fill="rgba(186, 36, 48, 1)" d="M1235 974l-31 13 155 96z"/><path fill="rgba(130, 56, 53, 1)" d="M1297 395l29 113 30-25z"/><path fill="rgba(184, 170, 141, 1)" d="M1190-83V86l124 13z"/><path fill="rgba(98, 37, 34, 1)" d="M1251 678l2 13 124-35z"/><path fill="rgba(91, 32, 34, 1)" d="M1232 639l19 39 126-22z"/><path fill="rgba(166, 47, 53, 1)" d="M1355 779l20 25v-17z"/><path fill="rgba(152, 48, 49, 1)" d="M1355 779l-104 60 124-35z"/><path fill="rgba(175, 33, 47, 1)" d="M1328 952l-93 22 124 109z"/><path fill="rgba(61, 54, 46, 1)" d="M1314 99v96l75-8z"/><path fill="rgba(163, 50, 52, 1)" d="M1253 691l102 88 22-123z"/><path fill="rgba(250, 61, 68, 1)" d="M1326 508l-94 131 145 17z"/><path fill="rgba(124, 38, 41, 1)" d="M1251 839l77 113 47-148z"/><path fill="rgba(26, 25, 23, 1)" d="M1265 343l32 52 124-35z"/><path fill="rgba(146, 136, 109, 1)" d="M1190-83l124 182 104-63z"/><path fill="rgba(106, 102, 91, 1)" d="M1438 39l-20-3 20 28z"/><path fill="rgba(95, 91, 79, 1)" d="M1418 36l-104 63 124-35z"/><path fill="rgba(99, 50, 53, 1)" d="M1297 395l59 88 65-123z"/><path fill="rgba(27, 23, 22, 1)" d="M1294 212l-29 131 156 17z"/><path fill="rgba(57, 52, 48, 1)" d="M1314 195l-20 17 95-25z"/><path fill="rgba(187, 39, 51, 1)" d="M1204 987l-341 96h496z"/><path fill="rgba(173, 54, 60, 1)" d="M1375 787v17l77-28z"/><path fill="rgba(179, 58, 63, 1)" d="M1377 656l-2 131 77-11z"/><path fill="rgba(54, 51, 46, 1)" d="M1389 187l32 173 29-28z"/><path fill="rgba(80, 70, 61, 1)" d="M1314 99l75 88 49-123z"/><path fill="rgba(53, 44, 39, 1)" d="M1389 187l-95 25 127 148z"/><path fill="rgba(168, 51, 57, 1)" d="M1355 779l20 8 2-131z"/><path fill="rgba(205, 51, 63, 1)" d="M1358 491l-32 17 51 148z"/><path fill="rgba(227, 45, 60, 1)" d="M1375 804l-47 148 155-25z"/><path fill="rgba(47, 46, 44, 1)" d="M1438 39l60-35V0z"/><path fill="rgba(214, 40, 50, 1)" d="M1483 927l-155 25 170 20z"/><path fill="rgba(205, 41, 50, 1)" d="M1498 966l-15-39 15 45z"/><path fill="rgba(45, 44, 42, 1)" d="M1438 39l60-29V4z"/><path fill="rgba(47, 46, 44, 1)" d="M1438 39l60-23v-6z"/><path fill="rgba(49, 48, 46, 1)" d="M1438 39l60-17v-6zM1438 39l60-11v-6z"/><path fill="rgba(48, 47, 45, 1)" d="M1438 39l60-5v-6zM1438 39l60 1v-6z"/><path fill="rgba(49, 48, 46, 1)" d="M1438 39l60 7v-6z"/><path fill="rgba(49, 48, 46, 1)" d="M1438 39l60 13v-6z"/><path fill="rgba(62, 53, 48, 1)" d="M1438 39v25l60-12z"/><path fill="rgba(52, 48, 45, 1)" d="M1438 64l60-6v-6zM1438 64h60v-6z"/><path fill="rgba(53, 47, 47, 1)" d="M1438 64l60 6v-6z"/><path fill="rgba(53, 47, 47, 1)" d="M1438 64l60 12v-6z"/><path fill="rgba(53, 47, 47, 1)" d="M1438 64l60 18v-6z"/><path fill="rgba(53, 47, 47, 1)" d="M1438 64l60 24v-6z"/><path fill="rgba(53, 48, 45, 1)" d="M1438 64l60 28v-4z"/><path fill="rgba(52, 48, 45, 1)" d="M1438 64l60 70v-6z"/><path fill="rgba(70, 62, 51, 1)" d="M1438 64l-49 123 109-53z"/><path fill="rgba(65, 61, 52, 1)" d="M1389 187l109-47v-6z"/><path fill="rgba(66, 62, 53, 1)" d="M1389 187l109-41v-6z"/><path fill="rgba(64, 60, 51, 1)" d="M1389 187l109-35v-6zM1389 187l109-29v-6z"/><path fill="rgba(64, 59, 53, 1)" d="M1389 187l109-23v-6z"/><path fill="rgba(54, 49, 45, 1)" d="M1389 187l109-17v-6z"/><path fill="rgba(47, 43, 40, 1)" d="M1389 187l109-11v-6z"/><path fill="rgba(45, 41, 38, 1)" d="M1389 187l109-5v-6z"/><path fill="rgba(44, 40, 37, 1)" d="M1389 187l109 1v-6z"/><path fill="rgba(46, 42, 39, 1)" d="M1389 187l109 7v-6z"/><path fill="rgba(45, 42, 37, 1)" d="M1389 187l109 13v-6z"/><path fill="rgba(45, 42, 37, 1)" d="M1389 187l109 19v-6z"/><path fill="rgba(44, 41, 36, 1)" d="M1389 187l109 25v-6z"/><path fill="rgba(44, 41, 36, 1)" d="M1389 187l109 31v-6z"/><path fill="rgba(41, 40, 38, 1)" d="M1389 187l109 37v-6z"/><path fill="rgba(41, 40, 38, 1)" d="M1389 187l109 43v-6z"/><path fill="rgba(41, 40, 38, 1)" d="M1389 187l109 49v-6z"/><path fill="rgba(41, 40, 38, 1)" d="M1389 187l109 55v-6z"/><path fill="rgba(40, 39, 37, 1)" d="M1389 187l109 61v-6z"/><path fill="rgba(40, 39, 37, 1)" d="M1389 187l109 67v-6z"/><path fill="rgba(40, 39, 37, 1)" d="M1389 187l109 73v-6z"/><path fill="rgba(42, 38, 35, 1)" d="M1389 187l61 145 48-72z"/><path fill="rgba(156, 155, 150, 1)" d="M1450 332l48-66v-6z"/><path fill="rgba(145, 144, 140, 1)" d="M1450 332l48-60v-6z"/><path fill="rgba(161, 160, 156, 1)" d="M1450 332l48-54v-6z"/><path fill="rgba(171, 170, 166, 1)" d="M1450 332l48-48v-6z"/><path fill="rgba(178, 177, 173, 1)" d="M1450 332l48-42v-6z"/><path fill="rgba(176, 175, 171, 1)" d="M1450 332l48-36v-6z"/><path fill="rgba(171, 170, 165, 1)" d="M1450 332l48-30v-6z"/><path fill="rgba(165, 162, 157, 1)" d="M1450 332l48-24v-6z"/><path fill="rgba(164, 163, 158, 1)" d="M1450 332l32 3 16-27z"/><path fill="rgba(196, 192, 181, 1)" d="M1482 335l16-21v-6z"/><path fill="rgba(202, 202, 192, 1)" d="M1482 335l16-15v-6z"/><path fill="rgba(203, 203, 195, 1)" d="M1482 335l16-9v-6z"/><path fill="rgba(198, 197, 192, 1)" d="M1482 335l16-3v-6z"/><path fill="rgba(177, 176, 171, 1)" d="M1482 335l16 3v-6z"/><path fill="rgba(82, 78, 69, 1)" d="M1482 335l-32-3 48 30z"/><path fill="rgba(52, 48, 45, 1)" d="M1450 332l48 36v-6z"/><path fill="rgba(44, 39, 36, 1)" d="M1450 332l-29 28 77 8z"/><path fill="rgba(75, 70, 66, 1)" d="M1421 360l77 14v-6z"/><path fill="rgba(79, 72, 66, 1)" d="M1421 360l77 20v-6z"/><path fill="rgba(77, 72, 68, 1)" d="M1421 360l77 26v-6z"/><path fill="rgba(62, 57, 53, 1)" d="M1421 360l77 32v-6z"/><path fill="rgba(52, 49, 44, 1)" d="M1421 360l77 38v-6z"/><path fill="rgba(57, 54, 47, 1)" d="M1421 360l77 44v-6z"/><path fill="rgba(62, 57, 51, 1)" d="M1421 360l77 50v-6z"/><path fill="rgba(60, 55, 49, 1)" d="M1421 360l77 56v-6z"/><path fill="rgba(142, 129, 113, 1)" d="M1358 491l140 7v-4z"/><path fill="rgba(137, 127, 115, 1)" d="M1358 491l140 13v-6z"/><path fill="rgba(133, 128, 125, 1)" d="M1358 491l140 19v-6z"/><path fill="rgba(131, 129, 134, 1)" d="M1358 491l140 25v-6z"/><path fill="rgba(135, 134, 140, 1)" d="M1358 491l140 31v-6z"/><path fill="rgba(139, 137, 140, 1)" d="M1358 491l140 37v-6z"/><path fill="rgba(38, 34, 33, 1)" d="M1358 491l140 75v-6z"/><path fill="rgba(35, 34, 32, 1)" d="M1358 491l140 81v-6z"/><path fill="rgba(152, 65, 71, 1)" d="M1358 491l19 165 121-84z"/><path fill="rgba(113, 111, 112, 1)" d="M1377 656l121-78v-6z"/><path fill="rgba(120, 114, 114, 1)" d="M1377 656l121-72v-6z"/><path fill="rgba(123, 113, 112, 1)" d="M1377 656l121-66v-6z"/><path fill="rgba(135, 115, 106, 1)" d="M1377 656l121-60v-6z"/><path fill="rgba(220, 132, 131, 1)" d="M1377 656l121-54v-6z"/><path fill="rgba(175, 56, 58, 1)" d="M1377 656l121-48v-6z"/><path fill="rgba(163, 54, 57, 1)" d="M1377 656l121-42v-6z"/><path fill="rgba(165, 52, 56, 1)" d="M1377 656l121-36v-6z"/><path fill="rgba(168, 51, 59, 1)" d="M1377 656l121-30v-6z"/><path fill="rgba(191, 60, 68, 1)" d="M1377 656l121 4v-6z"/><path fill="rgba(172, 57, 60, 1)" d="M1377 656l121 10v-6z"/><path fill="rgba(160, 54, 56, 1)" d="M1377 656l121 16v-6z"/><path fill="rgba(91, 42, 45, 1)" d="M1377 656l121 54v-6z"/><path fill="rgba(130, 56, 55, 1)" d="M1377 656l75 120 46-66z"/><path fill="rgba(17, 15, 16, 1)" d="M1452 776l46-60v-6z"/><path fill="rgba(15, 19, 18, 1)" d="M1452 776l46-54v-6z"/><path fill="rgba(20, 19, 24, 1)" d="M1452 776l46-48v-6z"/><path fill="rgba(25, 16, 19, 1)" d="M1452 776l46-42v-6z"/><path fill="rgba(50, 19, 16, 1)" d="M1452 776l46-36v-6z"/><path fill="rgba(144, 59, 64, 1)" d="M1452 776l46-30v-6z"/><path fill="rgba(163, 54, 60, 1)" d="M1452 776l46-24v-6z"/><path fill="rgba(165, 52, 54, 1)" d="M1452 776l46-18v-6z"/><path fill="rgba(173, 55, 55, 1)" d="M1452 776l46-12v-6z"/><path fill="rgba(208, 41, 51, 1)" d="M1483 927l15 9v-6z"/><path fill="rgba(213, 46, 56, 1)" d="M1483 927l15 15v-6z"/><path fill="rgba(210, 43, 53, 1)" d="M1483 927l15 21v-6z"/><path fill="rgba(210, 43, 53, 1)" d="M1483 927l15 27v-6z"/><path fill="rgba(205, 41, 50, 1)" d="M1483 927l15 33v-6z"/><path fill="rgba(204, 40, 49, 1)" d="M1483 927l15 39v-6z"/><path fill="rgba(97, 97, 97, 1)" d="M1498 626v28l1-23z"/><path fill="rgba(61, 57, 54, 1)" d="M1499 628l-1-2 1 5z"/><path fill="rgba(98, 93, 89, 1)" d="M1358 491l140 69v-32z"/><path fill="rgba(193, 56, 66, 1)" d="M1377 656l121-2v-28z"/><path fill="rgba(154, 59, 65, 1)" d="M1377 656l121 48v-32z"/><path fill="rgba(36, 35, 33, 1)" d="M1498 416l-142 67 145-3z"/><path fill="rgba(148, 129, 112, 1)" d="M1356 483l2 8 143-11z"/><path fill="rgba(152, 133, 118, 1)" d="M1358 491l140 3 3-14z"/><path fill="rgba(60, 55, 51, 1)" d="M1498 620v6l1 2z"/><path fill="rgba(70, 59, 55, 1)" d="M1418 36l20 3 60-39z"/><path fill="rgba(210, 38, 50, 1)" d="M1328 952l31 131 139-111z"/><path fill="rgba(52, 47, 44, 1)" d="M1438 64l60 64V92z"/><path fill="rgba(114, 106, 95, 1)" d="M1482 335l16 27v-24z"/><path fill="rgba(38, 37, 33, 1)" d="M1421 360l-65 123 142-67z"/><path fill="rgba(165, 50, 55, 1)" d="M1452 776l-77 28 108 123z"/><path fill="rgba(211, 211, 201, 1)" d="M1498 170v6l47 8z"/><path fill="rgba(207, 207, 197, 1)" d="M1498 176v6l47 2z"/><path fill="rgba(210, 208, 196, 1)" d="M1498 182v6l47-4z"/><path fill="rgba(211, 207, 195, 1)" d="M1498 188v6l47-10z"/><path fill="rgba(207, 205, 192, 1)" d="M1498 194v6l47-16z"/><path fill="rgba(190, 184, 168, 1)" d="M1498 200v6l47-22z"/><path fill="rgba(176, 169, 151, 1)" d="M1498 206v6l47-28z"/><path fill="rgba(211, 212, 206, 1)" d="M1498 158v6l47 20z"/><path fill="rgba(209, 210, 202, 1)" d="M1498 164v6l47 14z"/><path fill="rgba(218, 42, 55, 1)" d="M1483 927l15 3V764z"/><path fill="rgba(180, 57, 62, 1)" d="M1452 776l31 151 15-163z"/><path fill="rgba(68, 63, 59, 1)" d="M1498 614v6l1 8z"/><path fill="rgba(83, 78, 72, 1)" d="M1498 608v6l1 14z"/><path fill="rgba(104, 99, 95, 1)" d="M1498 602v6l1 20z"/><path fill="rgba(114, 108, 108, 1)" d="M1498 596v6l1 26z"/><path fill="rgba(119, 113, 113, 1)" d="M1498 590v6l1 32z"/><path fill="rgba(109, 107, 110, 1)" d="M1498 584v6l1 38z"/><path fill="rgba(102, 98, 99, 1)" d="M1498 578v6l1 44z"/><path fill="rgba(84, 76, 74, 1)" d="M1498 572v6l1 50z"/><path fill="rgba(20, 20, 18, 1)" d="M1498 704v6l1-79z"/><path fill="rgba(45, 39, 39, 1)" d="M1498 672v32l1-73z"/><path fill="rgba(203, 202, 200, 1)" d="M1498 666v6l1-41z"/><path fill="rgba(205, 206, 201, 1)" d="M1498 660v6l1-35z"/><path fill="rgba(196, 196, 194, 1)" d="M1498 654v6l1-29z"/><path fill="rgba(64, 60, 51, 1)" d="M1498 572l1 56 2-148z"/><path fill="rgba(66, 59, 53, 1)" d="M1498 566v6l3-92z"/><path fill="rgba(82, 71, 65, 1)" d="M1498 560v6l3-86z"/><path fill="rgba(151, 144, 138, 1)" d="M1498 528v32l3-80z"/><path fill="rgba(184, 179, 176, 1)" d="M1498 522v6l3-48z"/><path fill="rgba(171, 166, 163, 1)" d="M1498 516v6l3-42z"/><path fill="rgba(150, 145, 142, 1)" d="M1498 510v6l3-36z"/><path fill="rgba(112, 107, 104, 1)" d="M1498 504v6l3-30z"/><path fill="rgba(63, 62, 60, 1)" d="M1498 498v6l3-24z"/><path fill="rgba(43, 42, 40, 1)" d="M1498 494v4l3-18z"/><path fill="rgba(17, 17, 17, 1)" d="M1498 960v6l47-782z"/><path fill="rgba(18, 18, 18, 1)" d="M1498 954v6l47-776z"/><path fill="rgba(18, 18, 18, 1)" d="M1498 948v6l47-770z"/><path fill="rgba(19, 19, 19, 1)" d="M1498 942v6l47-764z"/><path fill="rgba(20, 20, 18, 1)" d="M1498 936v6l47-758z"/><path fill="rgba(20, 20, 18, 1)" d="M1498 930v6l47-752z"/><path fill="rgba(62, 57, 53, 1)" d="M1498 764v166l47-746z"/><path fill="rgba(223, 224, 219, 1)" d="M1498 152v6l47 26z"/><path fill="rgba(233, 234, 229, 1)" d="M1498 146v6l47 32z"/><path fill="rgba(237, 237, 235, 1)" d="M1498 140v6l47 38z"/><path fill="rgba(237, 237, 235, 1)" d="M1498 134v6l47 44z"/><path fill="rgba(243, 243, 241, 1)" d="M1498 128v6l47 50z"/><path fill="rgba(212, 214, 213, 1)" d="M1498 92v36l47 56z"/><path fill="rgba(123, 124, 128, 1)" d="M1498 88v4l47 92z"/><path fill="rgba(108, 109, 113, 1)" d="M1498 82v6l47 96z"/><path fill="rgba(97, 98, 102, 1)" d="M1498 76v6l47 102z"/><path fill="rgba(87, 83, 84, 1)" d="M1498 70v6l47 108z"/><path fill="rgba(75, 71, 70, 1)" d="M1498 64v6l47 114z"/><path fill="rgba(73, 69, 66, 1)" d="M1498 58v6l47 120z"/><path fill="rgba(73, 69, 68, 1)" d="M1498 52v6l47 126z"/><path fill="rgba(72, 68, 67, 1)" d="M1498 46v6l47 132z"/><path fill="rgba(16, 16, 16, 1)" d="M1498 966v6l47-788z"/><path fill="rgba(79, 70, 61, 1)" d="M1498 758v6l47-580z"/><path fill="rgba(75, 66, 59, 1)" d="M1498 752v6l47-574z"/><path fill="rgba(69, 62, 54, 1)" d="M1498 746v6l47-568z"/><path fill="rgba(58, 53, 47, 1)" d="M1498 740v6l47-562z"/><path fill="rgba(51, 47, 44, 1)" d="M1498 734v6l47-556z"/><path fill="rgba(41, 37, 34, 1)" d="M1498 728v6l47-550z"/><path fill="rgba(43, 43, 35, 1)" d="M1498 722v6l47-544z"/><path fill="rgba(64, 57, 51, 1)" d="M1498 716v6l47-538z"/><path fill="rgba(182, 177, 174, 1)" d="M1499 631l-1 79 47-526z"/><path fill="rgba(76, 67, 60, 1)" d="M1498 710v6l47-532z"/><path fill="rgba(109, 109, 101, 1)" d="M1498 416l3 64 44-296z"/><path fill="rgba(148, 145, 138, 1)" d="M1498 410v6l47-232z"/><path fill="rgba(167, 166, 161, 1)" d="M1498 404v6l47-226z"/><path fill="rgba(180, 180, 172, 1)" d="M1498 398v6l47-220z"/><path fill="rgba(182, 182, 174, 1)" d="M1498 392v6l47-214z"/><path fill="rgba(174, 174, 164, 1)" d="M1498 386v6l47-208z"/><path fill="rgba(166, 162, 153, 1)" d="M1498 380v6l47-202z"/><path fill="rgba(177, 174, 167, 1)" d="M1498 374v6l47-196z"/><path fill="rgba(195, 194, 189, 1)" d="M1498 368v6l47-190z"/><path fill="rgba(201, 201, 193, 1)" d="M1498 362v6l47-184z"/><path fill="rgba(189, 186, 179, 1)" d="M1498 338v24l47-178z"/><path fill="rgba(185, 182, 175, 1)" d="M1498 332v6l47-154z"/><path fill="rgba(194, 191, 184, 1)" d="M1498 326v6l47-148z"/><path fill="rgba(199, 196, 189, 1)" d="M1498 320v6l47-142z"/><path fill="rgba(199, 196, 189, 1)" d="M1498 314v6l47-136z"/><path fill="rgba(205, 202, 193, 1)" d="M1498 308v6l47-130z"/><path fill="rgba(209, 209, 201, 1)" d="M1498 302v6l47-124z"/><path fill="rgba(216, 217, 211, 1)" d="M1498 296v6l47-118z"/><path fill="rgba(225, 226, 220, 1)" d="M1498 290v6l47-112z"/><path fill="rgba(225, 226, 220, 1)" d="M1498 284v6l47-106z"/><path fill="rgba(214, 215, 209, 1)" d="M1498 278v6l47-100z"/><path fill="rgba(195, 196, 190, 1)" d="M1498 272v6l47-94z"/><path fill="rgba(166, 166, 158, 1)" d="M1498 266v6l47-88z"/><path fill="rgba(131, 127, 118, 1)" d="M1498 260v6l47-82z"/><path fill="rgba(130, 124, 112, 1)" d="M1498 254v6l47-76z"/><path fill="rgba(138, 130, 119, 1)" d="M1498 248v6l47-70z"/><path fill="rgba(151, 142, 133, 1)" d="M1498 242v6l47-64z"/><path fill="rgba(163, 157, 145, 1)" d="M1498 236v6l47-58z"/><path fill="rgba(169, 163, 151, 1)" d="M1498 230v6l47-52z"/><path fill="rgba(166, 160, 148, 1)" d="M1498 224v6l47-46z"/><path fill="rgba(164, 158, 146, 1)" d="M1498 218v6l47-40z"/><path fill="rgba(165, 159, 145, 1)" d="M1498 212v6l47-34z"/><path fill="rgba(41, 39, 42, 1)" d="M1501 480l-2 148 46-444z"/><path fill="rgba(51, 50, 48, 1)" d="M1499 628v3l46-447z"/><path fill="rgba(179, 161, 141, 1)" d="M198-123l496 13 868-1z"/><path fill="rgba(91, 78, 69, 1)" d="M1066-83h124l372-28z"/><path fill="rgba(94, 88, 76, 1)" d="M694-110l372 27 496-28z"/><path fill="rgba(60, 58, 59, 1)" d="M1418 36l80-36 64-111z"/><path fill="rgba(80, 69, 63, 1)" d="M1190-83l228 119 144-147z"/><path fill="rgba(81, 84, 91, 1)" d="M1498 46l47 138 17-295z"/><path fill="rgba(73, 73, 75, 1)" d="M1498 40v6l64-157z"/><path fill="rgba(73, 73, 75, 1)" d="M1498 34v6l64-151z"/><path fill="rgba(73, 73, 75, 1)" d="M1498 28v6l64-145z"/><path fill="rgba(73, 73, 75, 1)" d="M1498 22v6l64-139z"/><path fill="rgba(73, 73, 75, 1)" d="M1498 16v6l64-133z"/><path fill="rgba(73, 73, 75, 1)" d="M1498 10v6l64-127z"/><path fill="rgba(73, 73, 75, 1)" d="M1498 4v6l64-121z"/><path fill="rgba(73, 73, 75, 1)" d="M1498 0v4l64-115z"/></svg>