<svg width="165" height="165" viewBox="0 0 165 165" xmlns="http://www.w3.org/2000/svg">
  <rect width="165" height="165" fill="#1300c1" fill-rule="evenodd" />
  <path d="M42.07 118c2.36 0 4.09-.96 4.09-2.76 0-1.6-1.08-2.24-2.59-3.09a8.28 8.28 0 01-3.98-4.57c-.54-1.38-1.08-3.72-1.08-11.05V85.47c0-1.06.43-1.48 1.3-1.7.53-.1 1.29-.1 1.72-.1 8.29 0 13.02 6.59 16.57 14.98 3.45 8.08 5.71 13.3 7.43 15.63 2.16 3.08 4.85 3.72 9.05 3.72h10.87c1.5 0 3.55-.53 3.55-2.55 0-2.02-2.26-2.76-3.55-3.83-1.94-1.6-3.12-2.97-7.65-13.4-5.05-11.68-8.6-17.74-17.65-18.91-.86-.1-1.08-.32-1.08-.74 0-.43.54-.54 1.19-.64 6.67-.75 13.02-4.04 15.93-10.1.97-1.91 1.5-4.46 1.5-7.23 0-4.68-1.72-9.88-6.67-13.6-5.81-4.36-14.42-5-22.6-5-3.13 0-6.25.1-9.15.1H17.3c-2.37 0-3.56 1.18-3.56 2.45 0 2.13 1.94 2.45 3.88 3.62 2.7 1.53 3 3.86 3.01 7.36v41c0 7.33-.43 9.57-.97 11.05a8.57 8.57 0 01-3.98 4.57c-1.5.85-2.69 1.5-2.69 3.09 0 1.8 1.83 2.76 4.2 2.76h24.87zm3.13-44h-4.9c-.87 0-1.3-.42-1.3-1.27V51.59c0-1.06.54-1.59 1.63-1.59h4.9C50.62 50 59 51.17 59 61.68 59 70.81 52.26 74 45.2 74zm74.17 45c18.21 0 31.63-10.27 31.63-24.66 0-27.1-39.62-19.9-39.62-36.09 0-5.93 5.11-8.78 10.12-8.78 6.5 0 10.65 4.34 13.74 7.93 3.4 4.03 4.8 7.1 8.1 7.1 3.93 0 4.15-4.03 4.15-7.3 0-3.6-.64-8.26-2.67-10.27-4.04-3.81-12.46-5.93-20.55-5.93-17.36 0-29.29 10.48-29.29 23.39 0 24.66 39.51 18.73 39.51 35.35 0 3.38-1.7 5.92-3.62 7.62-2.34 2-5.86 2.75-8.94 2.75-7.57 0-12.36-4.34-15.98-8.15-5.54-5.82-6.28-9.74-9.9-9.74-2.03 0-4.05 1.6-4.05 4.87 0 1.27.21 2.65.21 4.02 0 3.07.32 6.57 2.13 9.42 3.41 5.3 14.27 8.47 25.03 8.47z" fill="white" fill-rule="nonzero"/>
</svg>
