<svg width="120" height="120" viewBox="0 0 120 120" xmlns="http://www.w3.org/2000/svg">
  <g fill="none" fill-rule="evenodd">
    <path id="bg" d="M0 19h121v82H0z"/>
    <path id="text" d="M16.66 88l3.02-17h2.02c.5 0 1.08 0 1.58-.06L26.45 88h10.44l-4.54-19.37c4.47-2.37 7.63-6.84 8.79-13.82l1.08-6.55c1.87-10.95-3.68-16.7-13.4-16.7H16.58L6.65 88h10zm6.33-25.42h-1.87l3.96-22.46h1.51c2.6 0 4.83.65 5.98 1.66.14 1.65.14 3.45-.29 5.9l-.86 5.54c-1.16 7.06-3.6 9.36-8.43 9.36zm33.7 26.5c10.51 0 16.49-5.76 16.49-15.98 0-15.41-13.32-15.41-13.32-27.94 0-3.89 1.36-6.34 5.1-6.34 1.45 0 2.96.36 3.68 1.23a47.87 47.87 0 01-.65 5.47l-1.08 5.76h9.29c.58-1.87 1.87-7.34 1.87-10.15 0-6.63-4.03-10.66-12.53-10.66-10.58 0-15.9 5.83-15.9 15.7 0 16.27 13.31 16.34 13.31 28.22 0 3.75-1.65 6.34-5.54 6.34-1.66 0-3.1-.36-4.1-1.44.14-1.3.35-3.1.64-4.9l.87-4.17h-9.58c-.5 1.72-1.51 5.76-1.51 8.5 0 6.47 4.17 10.36 12.96 10.36zM85.13 88l3.53-12.38h9.14L96.86 88h10.16l2.95-56.45H91.9L74.9 88h10.23zm13.39-20.8h-7.56l7.13-27.08h2.8l-2.37 27.07z" fill-rule="nonzero"/>
  </g>
  <style>
    #bg { fill: #FFEAF5; }
    #text { fill: #150030; }

    @media (prefers-color-scheme: light) {
      #bg { fill: #150030; }
      #text { fill: #FFEAF5; }
    }
  </style>
</svg>
